<svg width="582" height="267" viewBox="0 0 582 267" fill="none" xmlns="http://www.w3.org/2000/svg">
<path d="M167.736 94.744H163.776C163.776 98.536 163.776 102.04 163.776 105.256C163.824 108.424 163.872 111.544 163.92 114.616H168.312C172.92 114.616 176.352 113.776 178.608 112.096C180.864 110.416 181.992 107.992 181.992 104.824C181.992 101.464 180.864 98.944 178.608 97.264C176.352 95.584 172.728 94.744 167.736 94.744ZM168.888 73.144H163.92C163.872 76.216 163.824 79.336 163.776 82.504C163.776 85.624 163.776 88.6 163.776 91.432H167.52C171.888 91.432 175.056 90.688 177.024 89.2C178.992 87.712 179.976 85.336 179.976 82.072C179.976 78.808 179.04 76.504 177.168 75.16C175.344 73.816 172.584 73.144 168.888 73.144ZM150.168 72.784V69.832H171.048C176.04 69.832 179.904 70.936 182.64 73.144C185.376 75.352 186.744 78.16 186.744 81.568C186.744 84.112 185.88 86.44 184.152 88.552C182.424 90.664 179.568 92.128 175.584 92.944C180.384 93.616 183.84 95.032 185.952 97.192C188.112 99.352 189.192 101.896 189.192 104.824C189.192 106.984 188.544 109.072 187.248 111.088C186 113.104 183.96 114.76 181.128 116.056C178.296 117.352 174.576 118 169.968 118H150.168V115.048L156.792 114.256C156.888 111.232 156.936 108.16 156.936 105.04C156.936 101.92 156.936 98.8 156.936 95.68V92.152C156.936 89.032 156.936 85.936 156.936 82.864C156.936 79.744 156.888 76.648 156.792 73.576L150.168 72.784ZM206.211 118.936C203.283 118.936 200.979 117.976 199.299 116.056C197.619 114.088 196.803 110.728 196.851 105.976L197.067 88.048L191.955 86.968V84.376L202.539 83.368L203.259 84.088L202.899 94.168V105.328C202.899 108.448 203.379 110.656 204.339 111.952C205.299 113.2 206.739 113.824 208.659 113.824C212.019 113.824 215.379 112.264 218.739 109.144L218.955 87.976L213.843 86.968V84.376L224.283 83.368L225.003 84.088L224.787 94.168V114.4L229.683 115.408V118L219.675 118.576L218.955 112.168C217.035 114.52 214.971 116.248 212.763 117.352C210.603 118.408 208.419 118.936 206.211 118.936ZM203.619 75.088C202.467 75.088 201.459 74.704 200.595 73.936C199.779 73.168 199.371 72.184 199.371 70.984C199.371 69.832 199.779 68.872 200.595 68.104C201.459 67.288 202.467 66.88 203.619 66.88C204.819 66.88 205.827 67.288 206.643 68.104C207.507 68.872 207.939 69.832 207.939 70.984C207.939 72.184 207.507 73.168 206.643 73.936C205.827 74.704 204.819 75.088 203.619 75.088ZM218.739 75.088C217.539 75.088 216.507 74.704 215.643 73.936C214.827 73.168 214.419 72.184 214.419 70.984C214.419 69.832 214.827 68.872 215.643 68.104C216.507 67.288 217.539 66.88 218.739 66.88C219.891 66.88 220.875 67.288 221.691 68.104C222.555 68.872 222.987 69.832 222.987 70.984C222.987 72.184 222.555 73.168 221.691 73.936C220.875 74.704 219.891 75.088 218.739 75.088ZM245.812 118.936C243.796 118.936 241.948 118.696 240.268 118.216C238.588 117.784 236.86 117.112 235.084 116.2L234.796 108.28H238.756L240.124 114.544C241.804 115.312 243.748 115.696 245.956 115.696C248.692 115.696 250.708 115.192 252.004 114.184C253.348 113.176 254.02 111.856 254.02 110.224C254.02 108.688 253.468 107.464 252.364 106.552C251.26 105.592 249.58 104.728 247.324 103.96L244.012 102.736C241.372 101.776 239.26 100.528 237.676 98.992C236.092 97.456 235.3 95.464 235.3 93.016C235.3 91.24 235.78 89.584 236.74 88.048C237.7 86.512 239.116 85.264 240.988 84.304C242.86 83.344 245.14 82.864 247.828 82.864C249.796 82.864 251.572 83.128 253.156 83.656C254.788 84.136 256.372 84.856 257.908 85.816L257.62 93.16H253.876L252.724 87.4C251.092 86.584 249.436 86.176 247.756 86.176C245.548 86.176 243.868 86.632 242.716 87.544C241.612 88.408 241.06 89.584 241.06 91.072C241.06 92.656 241.54 93.856 242.5 94.672C243.508 95.488 245.236 96.352 247.684 97.264L249.916 98.056C253.516 99.4 256.06 100.936 257.548 102.664C259.084 104.392 259.852 106.384 259.852 108.64C259.852 110.464 259.324 112.168 258.268 113.752C257.212 115.288 255.652 116.536 253.588 117.496C251.524 118.456 248.932 118.936 245.812 118.936ZM277.966 118.936C275.038 118.936 272.734 117.976 271.054 116.056C269.374 114.088 268.558 110.728 268.606 105.976L268.822 88.048L263.71 86.968V84.376L274.294 83.368L275.014 84.088L274.654 94.168V105.328C274.654 108.448 275.134 110.656 276.094 111.952C277.054 113.2 278.494 113.824 280.414 113.824C283.774 113.824 287.134 112.264 290.494 109.144L290.71 87.976L285.598 86.968V84.376L296.038 83.368L296.758 84.088L296.542 94.168V114.4L301.438 115.408V118L291.43 118.576L290.71 112.168C288.79 114.52 286.726 116.248 284.518 117.352C282.358 118.408 280.174 118.936 277.966 118.936ZM306.047 118V115.408L311.375 114.4C311.423 112.576 311.447 110.608 311.447 108.496C311.495 106.384 311.519 104.512 311.519 102.88V99.424C311.519 97.456 311.495 95.824 311.447 94.528C311.447 93.232 311.399 91.864 311.303 90.424L305.615 89.776V87.256L315.695 82.864L316.775 83.584L317.351 89.416C319.031 87.496 320.999 85.936 323.255 84.736C325.511 83.488 327.743 82.864 329.951 82.864C332.207 82.864 334.031 83.392 335.423 84.448C336.863 85.504 337.895 87.232 338.519 89.632C340.343 87.376 342.383 85.696 344.639 84.592C346.895 83.44 349.199 82.864 351.551 82.864C354.479 82.864 356.735 83.848 358.319 85.816C359.951 87.784 360.767 91 360.767 95.464V102.88C360.767 104.512 360.767 106.384 360.767 108.496C360.815 110.608 360.863 112.576 360.911 114.4L365.951 115.408V118H349.247V115.408L354.575 114.4C354.623 112.624 354.647 110.68 354.647 108.568C354.695 106.408 354.719 104.512 354.719 102.88V96.616C354.719 93.256 354.239 91 353.279 89.848C352.319 88.648 350.783 88.048 348.671 88.048C347.183 88.048 345.647 88.384 344.063 89.056C342.527 89.728 340.847 90.904 339.023 92.584C339.071 93.112 339.095 93.688 339.095 94.312C339.143 94.888 339.167 95.512 339.167 96.184V102.88C339.167 104.512 339.167 106.384 339.167 108.496C339.215 110.608 339.263 112.576 339.311 114.4L344.351 115.408V118H327.647V115.408L332.975 114.4C333.023 112.624 333.047 110.68 333.047 108.568C333.095 106.408 333.119 104.512 333.119 102.88V96.76C333.119 93.496 332.663 91.24 331.751 89.992C330.839 88.696 329.327 88.048 327.215 88.048C325.583 88.048 324.023 88.384 322.535 89.056C321.047 89.728 319.415 90.832 317.639 92.368V102.88C317.639 104.464 317.639 106.336 317.639 108.496C317.687 110.608 317.735 112.576 317.783 114.4L322.751 115.408V118H306.047ZM386.713 86.176C385.369 86.176 384.001 86.56 382.609 87.328C381.265 88.096 380.089 89.32 379.081 91C378.121 92.68 377.497 94.912 377.209 97.696H390.313C392.041 97.696 393.169 97.336 393.697 96.616C394.273 95.896 394.561 95.008 394.561 93.952C394.561 92.56 394.201 91.288 393.481 90.136C392.809 88.936 391.873 87.976 390.673 87.256C389.521 86.536 388.201 86.176 386.713 86.176ZM386.641 118.936C381.793 118.936 377.905 117.376 374.977 114.256C372.049 111.088 370.585 106.744 370.585 101.224C370.585 97.528 371.329 94.312 372.817 91.576C374.353 88.84 376.369 86.704 378.865 85.168C381.409 83.632 384.169 82.864 387.145 82.864C389.641 82.864 391.897 83.416 393.913 84.52C395.929 85.624 397.537 87.208 398.737 89.272C399.937 91.288 400.537 93.76 400.537 96.688C400.537 97.504 400.489 98.272 400.393 98.992C400.297 99.664 400.177 100.24 400.033 100.72H377.065C377.161 105.136 378.265 108.496 380.377 110.8C382.489 113.104 385.273 114.256 388.729 114.256C391.033 114.256 392.953 113.8 394.489 112.888C396.025 111.928 397.441 110.704 398.737 109.216L400.465 110.584C399.121 113.128 397.297 115.168 394.993 116.704C392.689 118.192 389.905 118.936 386.641 118.936ZM406.352 118V115.408L411.536 114.472C411.584 112.648 411.608 110.68 411.608 108.568C411.656 106.408 411.68 104.512 411.68 102.88V99.424C411.68 97.456 411.656 95.824 411.608 94.528C411.608 93.232 411.56 91.864 411.464 90.424L405.776 89.776V87.256L415.856 82.864L416.936 83.584L417.728 92.08C418.928 89.2 420.464 86.944 422.336 85.312C424.256 83.68 426.176 82.864 428.096 82.864C429.2 82.864 430.232 83.104 431.192 83.584C432.152 84.064 432.848 84.712 433.28 85.528C433.28 89.032 431.864 90.784 429.032 90.784C428.216 90.784 427.448 90.64 426.728 90.352C426.008 90.016 425.312 89.56 424.64 88.984L423.776 88.192C422.336 89.248 421.136 90.544 420.176 92.08C419.216 93.616 418.424 95.416 417.8 97.48V102.88C417.8 104.464 417.8 106.312 417.8 108.424C417.848 110.536 417.896 112.504 417.944 114.328L423.848 115.408V118H406.352ZM167.736 163.744H163.776C163.776 167.536 163.776 171.04 163.776 174.256C163.824 177.424 163.872 180.544 163.92 183.616H168.312C172.92 183.616 176.352 182.776 178.608 181.096C180.864 179.416 181.992 176.992 181.992 173.824C181.992 170.464 180.864 167.944 178.608 166.264C176.352 164.584 172.728 163.744 167.736 163.744ZM168.888 142.144H163.92C163.872 145.216 163.824 148.336 163.776 151.504C163.776 154.624 163.776 157.6 163.776 160.432H167.52C171.888 160.432 175.056 159.688 177.024 158.2C178.992 156.712 179.976 154.336 179.976 151.072C179.976 147.808 179.04 145.504 177.168 144.16C175.344 142.816 172.584 142.144 168.888 142.144ZM150.168 141.784V138.832H171.048C176.04 138.832 179.904 139.936 182.64 142.144C185.376 144.352 186.744 147.16 186.744 150.568C186.744 153.112 185.88 155.44 184.152 157.552C182.424 159.664 179.568 161.128 175.584 161.944C180.384 162.616 183.84 164.032 185.952 166.192C188.112 168.352 189.192 170.896 189.192 173.824C189.192 175.984 188.544 178.072 187.248 180.088C186 182.104 183.96 183.76 181.128 185.056C178.296 186.352 174.576 187 169.968 187H150.168V184.048L156.792 183.256C156.888 180.232 156.936 177.16 156.936 174.04C156.936 170.92 156.936 167.8 156.936 164.68V161.152C156.936 158.032 156.936 154.936 156.936 151.864C156.936 148.744 156.888 145.648 156.792 142.576L150.168 141.784ZM221.513 187.72C219.785 187.72 218.345 187.216 217.193 186.208C216.041 185.2 215.321 183.856 215.033 182.176C213.065 184.096 211.337 185.536 209.849 186.496C208.361 187.456 206.561 187.936 204.449 187.936C201.809 187.936 199.529 187.192 197.609 185.704C195.737 184.168 194.801 181.912 194.801 178.936C194.801 177.544 195.113 176.248 195.737 175.048C196.409 173.848 197.609 172.672 199.337 171.52C201.065 170.368 203.537 169.216 206.753 168.064C207.857 167.68 209.129 167.272 210.569 166.84C212.009 166.408 213.449 166.024 214.889 165.688V163.888C214.889 160.384 214.361 158.056 213.305 156.904C212.249 155.752 210.521 155.176 208.121 155.176C207.593 155.176 206.993 155.2 206.321 155.248C205.697 155.296 205.001 155.416 204.233 155.608L202.865 160.288C202.193 162.592 200.945 163.744 199.121 163.744C197.105 163.744 195.977 162.76 195.737 160.792C196.409 158.056 197.993 155.896 200.489 154.312C203.033 152.68 206.129 151.864 209.777 151.864C213.569 151.864 216.377 152.824 218.201 154.744C220.025 156.616 220.937 159.832 220.937 164.392V179.728C220.937 181.264 221.177 182.368 221.657 183.04C222.137 183.664 222.761 183.976 223.529 183.976C224.153 183.976 224.681 183.832 225.113 183.544C225.545 183.256 225.953 182.872 226.337 182.392L227.777 183.976C226.913 185.368 225.953 186.352 224.897 186.928C223.889 187.456 222.761 187.72 221.513 187.72ZM201.209 177.856C201.209 179.776 201.761 181.144 202.865 181.96C203.969 182.776 205.337 183.184 206.969 183.184C207.689 183.184 208.361 183.088 208.985 182.896C209.657 182.704 210.449 182.344 211.361 181.816C212.273 181.24 213.449 180.424 214.889 179.368V168.352C213.641 168.688 212.417 169.072 211.217 169.504C210.017 169.888 209.033 170.224 208.265 170.512C206.201 171.328 204.665 172.168 203.657 173.032C202.649 173.896 201.977 174.736 201.641 175.552C201.353 176.368 201.209 177.136 201.209 177.856ZM230.002 187V184.408L235.33 183.4C235.378 181.576 235.402 179.608 235.402 177.496C235.45 175.384 235.474 173.512 235.474 171.88V168.424C235.474 166.456 235.45 164.824 235.402 163.528C235.402 162.232 235.354 160.864 235.258 159.424L229.57 158.776V156.256L239.65 151.864L240.73 152.584L241.306 158.344C243.082 156.424 245.122 154.864 247.426 153.664C249.73 152.464 251.986 151.864 254.194 151.864C257.314 151.864 259.618 152.92 261.106 155.032C262.642 157.096 263.41 160.48 263.41 165.184V171.88C263.41 173.512 263.41 175.384 263.41 177.496C263.458 179.608 263.506 181.576 263.555 183.4L268.595 184.408V187H251.89V184.408L257.218 183.4C257.266 181.624 257.29 179.68 257.29 177.568C257.338 175.408 257.362 173.512 257.362 171.88V165.76C257.362 162.448 256.882 160.168 255.922 158.92C255.01 157.672 253.498 157.048 251.386 157.048C249.754 157.048 248.17 157.384 246.634 158.056C245.098 158.728 243.418 159.832 241.594 161.368V171.88C241.594 173.464 241.594 175.336 241.594 177.496C241.642 179.608 241.69 181.576 241.738 183.4L246.706 184.408V187H230.002ZM271.867 187V184.408L277.627 183.4C277.675 181.48 277.699 179.56 277.699 177.64C277.747 175.672 277.771 173.752 277.771 171.88V140.272L271.867 139.552V137.032L283.099 133.792L284.107 134.368L283.819 144.592V169.72L296.131 156.904L290.803 155.608V152.8H307.579V155.608L300.811 156.616L292.891 164.752L304.699 183.544L309.451 184.408V187H299.659L288.571 169.144L283.819 174.04C283.819 175.576 283.819 177.136 283.819 178.72C283.867 180.304 283.915 181.864 283.963 183.4L289.723 184.408V187H271.867ZM317.035 170.152C317.035 174.856 317.971 178.312 319.843 180.52C321.763 182.728 324.163 183.832 327.043 183.832C328.627 183.832 330.067 183.496 331.363 182.824C332.659 182.104 334.003 180.928 335.395 179.296V159.928C333.667 158.392 332.131 157.36 330.787 156.832C329.491 156.256 328.219 155.968 326.971 155.968C325.195 155.968 323.539 156.472 322.003 157.48C320.515 158.488 319.315 160.048 318.403 162.16C317.491 164.224 317.035 166.888 317.035 170.152ZM325.243 187.936C322.315 187.936 319.747 187.192 317.539 185.704C315.331 184.216 313.603 182.152 312.355 179.512C311.155 176.872 310.555 173.8 310.555 170.296C310.555 166.6 311.203 163.384 312.499 160.648C313.843 157.864 315.667 155.704 317.971 154.168C320.275 152.632 322.843 151.864 325.675 151.864C327.355 151.864 329.011 152.224 330.643 152.944C332.323 153.664 333.979 154.96 335.611 156.832L340.507 151.864L341.659 152.584L341.443 162.304V188.944C341.443 190.864 341.443 192.808 341.443 194.776C341.491 196.744 341.539 198.712 341.587 200.68L347.347 201.688V204.208H328.843V201.688L335.467 200.608C335.515 198.64 335.539 196.672 335.539 194.704C335.587 192.784 335.611 190.864 335.611 188.944V182.32C334.219 184.24 332.659 185.656 330.931 186.568C329.251 187.48 327.355 187.936 325.243 187.936ZM362.729 187.936C359.801 187.936 357.497 186.976 355.817 185.056C354.137 183.088 353.321 179.728 353.369 174.976L353.585 157.048L348.473 155.968V153.376L359.057 152.368L359.777 153.088L359.417 163.168V174.328C359.417 177.448 359.897 179.656 360.857 180.952C361.817 182.2 363.257 182.824 365.177 182.824C368.537 182.824 371.897 181.264 375.257 178.144L375.473 156.976L370.361 155.968V153.376L380.801 152.368L381.521 153.088L381.305 163.168V183.4L386.201 184.408V187L376.193 187.576L375.473 181.168C373.553 183.52 371.489 185.248 369.281 186.352C367.121 187.408 364.937 187.936 362.729 187.936ZM390.45 187V184.408L395.85 183.4C395.898 181.576 395.922 179.608 395.922 177.496C395.97 175.336 395.994 173.464 395.994 171.88V168.496C395.994 166.528 395.97 164.896 395.922 163.6C395.922 162.256 395.874 160.864 395.778 159.424L390.018 158.776V156.256L401.106 151.864L402.186 152.584L401.97 162.376V171.88C401.97 173.464 401.97 175.336 401.97 177.496C402.018 179.608 402.066 181.576 402.114 183.4L407.154 184.408V187H390.45ZM398.946 143.944C397.602 143.944 396.45 143.512 395.49 142.648C394.578 141.784 394.122 140.68 394.122 139.336C394.122 137.944 394.578 136.84 395.49 136.024C396.45 135.16 397.602 134.728 398.946 134.728C400.29 134.728 401.418 135.16 402.33 136.024C403.29 136.84 403.77 137.944 403.77 139.336C403.77 140.68 403.29 141.784 402.33 142.648C401.418 143.512 400.29 143.944 398.946 143.944ZM423.055 187.936C421.039 187.936 419.191 187.696 417.511 187.216C415.831 186.784 414.103 186.112 412.327 185.2L412.039 177.28H415.999L417.367 183.544C419.047 184.312 420.991 184.696 423.199 184.696C425.935 184.696 427.951 184.192 429.247 183.184C430.591 182.176 431.263 180.856 431.263 179.224C431.263 177.688 430.711 176.464 429.607 175.552C428.503 174.592 426.823 173.728 424.567 172.96L421.255 171.736C418.615 170.776 416.503 169.528 414.919 167.992C413.335 166.456 412.543 164.464 412.543 162.016C412.543 160.24 413.023 158.584 413.983 157.048C414.943 155.512 416.359 154.264 418.231 153.304C420.103 152.344 422.383 151.864 425.071 151.864C427.039 151.864 428.815 152.128 430.399 152.656C432.031 153.136 433.615 153.856 435.151 154.816L434.863 162.16H431.119L429.967 156.4C428.335 155.584 426.679 155.176 424.999 155.176C422.791 155.176 421.111 155.632 419.959 156.544C418.855 157.408 418.303 158.584 418.303 160.072C418.303 161.656 418.783 162.856 419.743 163.672C420.751 164.488 422.479 165.352 424.927 166.264L427.159 167.056C430.759 168.4 433.303 169.936 434.791 171.664C436.327 173.392 437.095 175.384 437.095 177.64C437.095 179.464 436.567 181.168 435.511 182.752C434.455 184.288 432.895 185.536 430.831 186.496C428.767 187.456 426.175 187.936 423.055 187.936ZM458.378 187.936C453.434 187.936 449.498 186.328 446.57 183.112C443.642 179.896 442.178 175.528 442.178 170.008C442.178 166.216 442.946 162.976 444.482 160.288C446.066 157.552 448.13 155.464 450.674 154.024C453.218 152.584 455.93 151.864 458.81 151.864C460.97 151.864 462.962 152.272 464.786 153.088C466.61 153.904 468.122 155.032 469.322 156.472C470.522 157.864 471.266 159.448 471.554 161.224C471.218 163.048 470.114 163.96 468.242 163.96C467.042 163.96 466.13 163.648 465.506 163.024C464.93 162.352 464.522 161.512 464.282 160.504L462.986 155.752C462.314 155.512 461.642 155.368 460.97 155.32C460.346 155.224 459.722 155.176 459.098 155.176C456.026 155.176 453.482 156.376 451.466 158.776C449.498 161.176 448.514 164.68 448.514 169.288C448.514 173.8 449.594 177.256 451.754 179.656C453.914 182.056 456.674 183.256 460.034 183.256C462.098 183.256 463.994 182.8 465.722 181.888C467.45 180.928 468.866 179.56 469.97 177.784L471.77 178.72C470.762 181.696 469.13 183.976 466.874 185.56C464.618 187.144 461.786 187.936 458.378 187.936ZM474.977 187V184.408L480.377 183.4C480.425 181.576 480.449 179.608 480.449 177.496C480.497 175.336 480.521 173.464 480.521 171.88V140.272L474.617 139.552V137.032L485.633 133.792L486.641 134.368L486.353 144.592V158.488C488.129 156.52 490.193 154.936 492.545 153.736C494.897 152.488 497.225 151.864 499.529 151.864C502.649 151.864 504.953 152.92 506.441 155.032C507.977 157.096 508.745 160.48 508.745 165.184V171.88C508.745 173.512 508.745 175.384 508.745 177.496C508.793 179.608 508.841 181.576 508.889 183.4L513.929 184.408V187H497.225V184.408L502.481 183.472C502.529 181.648 502.553 179.68 502.553 177.568C502.601 175.408 502.625 173.512 502.625 171.88V165.76C502.625 162.448 502.169 160.168 501.257 158.92C500.345 157.672 498.833 157.048 496.721 157.048C494.945 157.048 493.265 157.408 491.681 158.128C490.097 158.848 488.393 160.048 486.569 161.728V171.88C486.569 173.464 486.569 175.336 486.569 177.496C486.617 179.608 486.665 181.576 486.713 183.4L491.681 184.408V187H474.977ZM534.707 155.176C533.363 155.176 531.995 155.56 530.603 156.328C529.259 157.096 528.083 158.32 527.075 160C526.115 161.68 525.491 163.912 525.203 166.696H538.307C540.035 166.696 541.163 166.336 541.691 165.616C542.267 164.896 542.555 164.008 542.555 162.952C542.555 161.56 542.195 160.288 541.475 159.136C540.803 157.936 539.867 156.976 538.667 156.256C537.515 155.536 536.195 155.176 534.707 155.176ZM534.635 187.936C529.787 187.936 525.899 186.376 522.971 183.256C520.043 180.088 518.579 175.744 518.579 170.224C518.579 166.528 519.323 163.312 520.811 160.576C522.347 157.84 524.363 155.704 526.859 154.168C529.403 152.632 532.163 151.864 535.139 151.864C537.635 151.864 539.891 152.416 541.907 153.52C543.923 154.624 545.531 156.208 546.731 158.272C547.931 160.288 548.531 162.76 548.531 165.688C548.531 166.504 548.483 167.272 548.387 167.992C548.291 168.664 548.171 169.24 548.027 169.72H525.059C525.155 174.136 526.259 177.496 528.371 179.8C530.483 182.104 533.267 183.256 536.723 183.256C539.027 183.256 540.947 182.8 542.483 181.888C544.019 180.928 545.435 179.704 546.731 178.216L548.459 179.584C547.115 182.128 545.291 184.168 542.987 185.704C540.683 187.192 537.899 187.936 534.635 187.936ZM554.346 187V184.408L559.53 183.472C559.578 181.648 559.602 179.68 559.602 177.568C559.65 175.408 559.674 173.512 559.674 171.88V168.424C559.674 166.456 559.65 164.824 559.602 163.528C559.602 162.232 559.554 160.864 559.458 159.424L553.77 158.776V156.256L563.85 151.864L564.93 152.584L565.722 161.08C566.922 158.2 568.458 155.944 570.33 154.312C572.25 152.68 574.17 151.864 576.09 151.864C577.194 151.864 578.226 152.104 579.186 152.584C580.146 153.064 580.842 153.712 581.274 154.528C581.274 158.032 579.858 159.784 577.026 159.784C576.21 159.784 575.442 159.64 574.722 159.352C574.002 159.016 573.306 158.56 572.634 157.984L571.77 157.192C570.33 158.248 569.13 159.544 568.17 161.08C567.21 162.616 566.418 164.416 565.794 166.48V171.88C565.794 173.464 565.794 175.312 565.794 177.424C565.842 179.536 565.89 181.504 565.938 183.328L571.842 184.408V187H554.346Z" fill="black"/>
<path d="M157.388 226.408C157.388 228.16 157.388 229.852 157.388 231.484C157.412 233.116 157.436 234.724 157.46 236.308H160.304C163.088 236.308 165.224 235.408 166.712 233.608C168.2 231.784 168.944 229.24 168.944 225.976C168.944 222.592 168.212 220.012 166.748 218.236C165.284 216.46 163.244 215.572 160.628 215.572H157.46C157.436 217.108 157.412 218.68 157.388 220.288C157.388 221.872 157.388 223.468 157.388 225.076V226.408ZM150.584 215.392V213.916H161.204C163.508 213.916 165.536 214.384 167.288 215.32C169.04 216.232 170.408 217.588 171.392 219.388C172.376 221.164 172.868 223.36 172.868 225.976C172.868 228.568 172.328 230.764 171.248 232.564C170.168 234.34 168.692 235.696 166.82 236.632C164.972 237.544 162.872 238 160.52 238H150.584V236.524L153.896 236.128C153.944 234.592 153.968 233.032 153.968 231.448C153.968 229.84 153.968 228.16 153.968 226.408V225.076C153.968 223.516 153.968 221.968 153.968 220.432C153.968 218.872 153.944 217.324 153.896 215.788L150.584 215.392ZM189.175 238.36C188.311 238.36 187.591 238.108 187.015 237.604C186.439 237.1 186.079 236.428 185.935 235.588C184.951 236.548 184.087 237.268 183.343 237.748C182.599 238.228 181.699 238.468 180.643 238.468C179.323 238.468 178.183 238.096 177.223 237.352C176.287 236.584 175.819 235.456 175.819 233.968C175.819 233.272 175.975 232.624 176.287 232.024C176.623 231.424 177.223 230.836 178.087 230.26C178.951 229.684 180.187 229.108 181.795 228.532C182.347 228.34 182.983 228.136 183.703 227.92C184.423 227.704 185.143 227.512 185.863 227.344V226.444C185.863 224.692 185.599 223.528 185.071 222.952C184.543 222.376 183.679 222.088 182.479 222.088C182.215 222.088 181.915 222.1 181.579 222.124C181.267 222.148 180.919 222.208 180.535 222.304L179.851 224.644C179.515 225.796 178.891 226.372 177.979 226.372C176.971 226.372 176.407 225.88 176.287 224.896C176.623 223.528 177.415 222.448 178.663 221.656C179.935 220.84 181.483 220.432 183.307 220.432C185.203 220.432 186.607 220.912 187.519 221.872C188.431 222.808 188.887 224.416 188.887 226.696V234.364C188.887 235.132 189.007 235.684 189.247 236.02C189.487 236.332 189.799 236.488 190.183 236.488C190.495 236.488 190.759 236.416 190.975 236.272C191.191 236.128 191.395 235.936 191.587 235.696L192.307 236.488C191.875 237.184 191.395 237.676 190.867 237.964C190.363 238.228 189.799 238.36 189.175 238.36ZM179.023 233.428C179.023 234.388 179.299 235.072 179.851 235.48C180.403 235.888 181.087 236.092 181.903 236.092C182.263 236.092 182.599 236.044 182.911 235.948C183.247 235.852 183.643 235.672 184.099 235.408C184.555 235.12 185.143 234.712 185.863 234.184V228.676C185.239 228.844 184.627 229.036 184.027 229.252C183.427 229.444 182.935 229.612 182.551 229.756C181.519 230.164 180.751 230.584 180.247 231.016C179.743 231.448 179.407 231.868 179.239 232.276C179.095 232.684 179.023 233.068 179.023 233.428ZM199.355 238.468C198.347 238.468 197.423 238.348 196.583 238.108C195.743 237.892 194.879 237.556 193.991 237.1L193.847 233.14H195.827L196.511 236.272C197.351 236.656 198.323 236.848 199.427 236.848C200.795 236.848 201.803 236.596 202.451 236.092C203.123 235.588 203.459 234.928 203.459 234.112C203.459 233.344 203.183 232.732 202.631 232.276C202.079 231.796 201.239 231.364 200.111 230.98L198.455 230.368C197.135 229.888 196.079 229.264 195.287 228.496C194.495 227.728 194.099 226.732 194.099 225.508C194.099 224.62 194.339 223.792 194.819 223.024C195.299 222.256 196.007 221.632 196.943 221.152C197.879 220.672 199.019 220.432 200.363 220.432C201.347 220.432 202.235 220.564 203.027 220.828C203.843 221.068 204.635 221.428 205.403 221.908L205.259 225.58H203.387L202.811 222.7C201.995 222.292 201.167 222.088 200.327 222.088C199.223 222.088 198.383 222.316 197.807 222.772C197.255 223.204 196.979 223.792 196.979 224.536C196.979 225.328 197.219 225.928 197.699 226.336C198.203 226.744 199.067 227.176 200.291 227.632L201.407 228.028C203.207 228.7 204.479 229.468 205.223 230.332C205.991 231.196 206.375 232.192 206.375 233.32C206.375 234.232 206.111 235.084 205.583 235.876C205.055 236.644 204.275 237.268 203.243 237.748C202.211 238.228 200.915 238.468 199.355 238.468ZM226.571 217.768L222.935 228.496H230.171L226.571 217.768ZM215.627 238V236.524L218.651 236.056L226.319 213.736H228.587L236.255 236.2L238.955 236.524V238H229.163V236.524L232.691 236.092L230.711 230.188H222.359L220.343 236.056L223.871 236.524V238H215.627ZM246.248 238.468C244.784 238.468 243.632 237.988 242.792 237.028C241.952 236.044 241.544 234.364 241.568 231.988L241.676 223.024L239.12 222.484V221.188L244.412 220.684L244.772 221.044L244.592 226.084V231.664C244.592 233.224 244.832 234.328 245.312 234.976C245.792 235.6 246.512 235.912 247.472 235.912C249.152 235.912 250.832 235.132 252.512 233.572L252.62 222.988L250.064 222.484V221.188L255.284 220.684L255.644 221.044L255.536 226.084V236.2L257.984 236.704V238L252.98 238.288L252.62 235.084C251.66 236.26 250.628 237.124 249.524 237.676C248.444 238.204 247.352 238.468 246.248 238.468ZM260.144 238V236.704L262.988 236.2C263.012 235.24 263.024 234.28 263.024 233.32C263.048 232.36 263.06 231.4 263.06 230.44V222.808H260.072V221.224L263.132 220.828C263.3 218.908 263.564 217.36 263.924 216.184C264.308 214.984 264.944 213.94 265.832 213.052C266.6 212.284 267.404 211.756 268.244 211.468C269.084 211.18 269.912 211.036 270.728 211.036C271.568 211.036 272.312 211.192 272.96 211.504C273.608 211.792 274.016 212.284 274.184 212.98C274.16 213.436 273.956 213.82 273.572 214.132C273.188 214.444 272.66 214.6 271.988 214.6C271.124 214.6 270.26 214.24 269.396 213.52L268.388 212.728C268.292 212.8 268.196 212.872 268.1 212.944C268.028 213.016 267.956 213.088 267.884 213.16C267.26 213.784 266.78 214.732 266.444 216.004C266.132 217.252 266 218.884 266.048 220.9H271.016V222.808H266.12V230.44C266.12 231.4 266.12 232.36 266.12 233.32C266.144 234.256 266.168 235.204 266.192 236.164L269.432 236.704V238H260.144ZM278.414 238.468C277.406 238.468 276.482 238.348 275.642 238.108C274.802 237.892 273.938 237.556 273.05 237.1L272.906 233.14H274.886L275.57 236.272C276.41 236.656 277.382 236.848 278.486 236.848C279.854 236.848 280.862 236.596 281.51 236.092C282.182 235.588 282.518 234.928 282.518 234.112C282.518 233.344 282.242 232.732 281.69 232.276C281.138 231.796 280.298 231.364 279.17 230.98L277.514 230.368C276.194 229.888 275.138 229.264 274.346 228.496C273.554 227.728 273.158 226.732 273.158 225.508C273.158 224.62 273.398 223.792 273.878 223.024C274.358 222.256 275.066 221.632 276.002 221.152C276.938 220.672 278.078 220.432 279.422 220.432C280.406 220.432 281.294 220.564 282.086 220.828C282.902 221.068 283.694 221.428 284.462 221.908L284.318 225.58H282.446L281.87 222.7C281.054 222.292 280.226 222.088 279.386 222.088C278.282 222.088 277.442 222.316 276.866 222.772C276.314 223.204 276.038 223.792 276.038 224.536C276.038 225.328 276.278 225.928 276.758 226.336C277.262 226.744 278.126 227.176 279.35 227.632L280.466 228.028C282.266 228.7 283.538 229.468 284.282 230.332C285.05 231.196 285.434 232.192 285.434 233.32C285.434 234.232 285.17 235.084 284.642 235.876C284.114 236.644 283.334 237.268 282.302 237.748C281.27 238.228 279.974 238.468 278.414 238.468ZM301.44 238.36C300.576 238.36 299.856 238.108 299.28 237.604C298.704 237.1 298.344 236.428 298.2 235.588C297.216 236.548 296.352 237.268 295.608 237.748C294.864 238.228 293.964 238.468 292.908 238.468C291.588 238.468 290.448 238.096 289.488 237.352C288.552 236.584 288.084 235.456 288.084 233.968C288.084 233.272 288.24 232.624 288.552 232.024C288.888 231.424 289.488 230.836 290.352 230.26C291.216 229.684 292.452 229.108 294.06 228.532C294.612 228.34 295.248 228.136 295.968 227.92C296.688 227.704 297.408 227.512 298.128 227.344V226.444C298.128 224.692 297.864 223.528 297.336 222.952C296.808 222.376 295.944 222.088 294.744 222.088C294.48 222.088 294.18 222.1 293.844 222.124C293.532 222.148 293.184 222.208 292.8 222.304L292.116 224.644C291.78 225.796 291.156 226.372 290.244 226.372C289.236 226.372 288.672 225.88 288.552 224.896C288.888 223.528 289.68 222.448 290.928 221.656C292.2 220.84 293.748 220.432 295.572 220.432C297.468 220.432 298.872 220.912 299.784 221.872C300.696 222.808 301.152 224.416 301.152 226.696V234.364C301.152 235.132 301.272 235.684 301.512 236.02C301.752 236.332 302.064 236.488 302.448 236.488C302.76 236.488 303.024 236.416 303.24 236.272C303.456 236.128 303.66 235.936 303.852 235.696L304.572 236.488C304.14 237.184 303.66 237.676 303.132 237.964C302.628 238.228 302.064 238.36 301.44 238.36ZM291.288 233.428C291.288 234.388 291.564 235.072 292.116 235.48C292.668 235.888 293.352 236.092 294.168 236.092C294.528 236.092 294.864 236.044 295.176 235.948C295.512 235.852 295.908 235.672 296.364 235.408C296.82 235.12 297.408 234.712 298.128 234.184V228.676C297.504 228.844 296.892 229.036 296.292 229.252C295.692 229.444 295.2 229.612 294.816 229.756C293.784 230.164 293.016 230.584 292.512 231.016C292.008 231.448 291.672 231.868 291.504 232.276C291.36 232.684 291.288 233.068 291.288 233.428ZM312.448 238.468C310.984 238.468 309.832 237.988 308.992 237.028C308.152 236.044 307.744 234.364 307.768 231.988L307.876 223.024L305.32 222.484V221.188L310.612 220.684L310.972 221.044L310.792 226.084V231.664C310.792 233.224 311.032 234.328 311.512 234.976C311.992 235.6 312.712 235.912 313.672 235.912C315.352 235.912 317.032 235.132 318.712 233.572L318.82 222.988L316.264 222.484V221.188L321.484 220.684L321.844 221.044L321.736 226.084V236.2L324.184 236.704V238L319.18 238.288L318.82 235.084C317.86 236.26 316.828 237.124 315.724 237.676C314.644 238.204 313.552 238.468 312.448 238.468ZM333.264 230.8C334.416 230.8 335.316 230.368 335.964 229.504C336.612 228.64 336.936 227.548 336.936 226.228C336.936 224.956 336.624 223.924 336 223.132C335.4 222.316 334.536 221.908 333.408 221.908C332.28 221.908 331.392 222.328 330.744 223.168C330.096 223.984 329.772 225.052 329.772 226.372C329.772 227.692 330.072 228.76 330.672 229.576C331.296 230.392 332.16 230.8 333.264 230.8ZM333.336 232.24C332.4 232.24 331.512 232.108 330.672 231.844C330.072 232.612 329.772 233.38 329.772 234.148C329.772 234.628 329.904 235.012 330.168 235.3C330.456 235.588 331.02 235.732 331.86 235.732H336.576C338.568 235.732 340.032 236.14 340.968 236.956C341.904 237.772 342.372 238.912 342.372 240.376C342.372 241.408 342.036 242.404 341.364 243.364C340.716 244.324 339.732 245.104 338.412 245.704C337.092 246.304 335.448 246.604 333.48 246.604C330.864 246.604 328.968 246.196 327.792 245.38C326.616 244.564 326.028 243.52 326.028 242.248C326.028 241.48 326.28 240.76 326.784 240.088C327.312 239.44 328.236 238.792 329.556 238.144C327.972 237.712 327.18 236.8 327.18 235.408C327.18 234.832 327.36 234.232 327.72 233.608C328.104 232.984 328.74 232.252 329.628 231.412C328.764 230.932 328.08 230.272 327.576 229.432C327.096 228.592 326.856 227.56 326.856 226.336C326.856 224.44 327.468 222.988 328.692 221.98C329.94 220.948 331.5 220.432 333.372 220.432C335.268 220.432 336.792 220.9 337.944 221.836L342.012 220.432L342.552 220.792V223.06H339.024C339.576 223.948 339.852 225.04 339.852 226.336C339.852 228.232 339.228 229.696 337.98 230.728C336.756 231.736 335.208 232.24 333.336 232.24ZM328.98 241.672C328.98 242.848 329.4 243.688 330.24 244.192C331.08 244.696 332.208 244.948 333.624 244.948C335.592 244.948 337.092 244.588 338.124 243.868C339.156 243.172 339.672 242.32 339.672 241.312C339.672 240.52 339.396 239.848 338.844 239.296C338.292 238.768 337.368 238.504 336.072 238.504H331.86C331.62 238.504 331.368 238.492 331.104 238.468C330.864 238.468 330.624 238.456 330.384 238.432C329.88 238.96 329.52 239.476 329.304 239.98C329.088 240.508 328.98 241.072 328.98 241.672ZM363.737 222.304V220.9H370.325V222.304L368.381 222.772L363.125 238.216H361.793L357.113 225.436L352.361 238.216H351.029L345.233 222.664L343.181 222.304V220.9H351.389V222.304L348.581 222.736L352.289 233.788L356.321 222.736L353.657 222.304V220.9H361.613V222.304L358.949 222.772L363.053 233.752L366.401 222.808L363.737 222.304ZM378.341 238.468C376.877 238.468 375.725 237.988 374.885 237.028C374.045 236.044 373.637 234.364 373.661 231.988L373.769 223.024L371.213 222.484V221.188L376.505 220.684L376.865 221.044L376.685 226.084V231.664C376.685 233.224 376.925 234.328 377.405 234.976C377.885 235.6 378.605 235.912 379.565 235.912C381.245 235.912 382.925 235.132 384.605 233.572L384.713 222.988L382.157 222.484V221.188L387.377 220.684L387.737 221.044L387.629 226.084V236.2L390.077 236.704V238L385.073 238.288L384.713 235.084C383.753 236.26 382.721 237.124 381.617 237.676C380.537 238.204 379.445 238.468 378.341 238.468ZM392.381 238V236.704L395.045 236.2C395.069 235.288 395.081 234.304 395.081 233.248C395.105 232.192 395.117 231.256 395.117 230.44V228.712C395.117 227.728 395.105 226.912 395.081 226.264C395.081 225.616 395.057 224.932 395.009 224.212L392.165 223.888V222.628L397.205 220.432L397.745 220.792L398.033 223.672C398.921 222.712 399.941 221.932 401.093 221.332C402.245 220.732 403.373 220.432 404.477 220.432C406.037 220.432 407.189 220.96 407.933 222.016C408.701 223.048 409.085 224.74 409.085 227.092V230.44C409.085 231.256 409.085 232.192 409.085 233.248C409.109 234.304 409.133 235.288 409.157 236.2L411.677 236.704V238H403.325V236.704L405.989 236.2C406.013 235.312 406.025 234.34 406.025 233.284C406.049 232.204 406.061 231.256 406.061 230.44V227.38C406.061 225.724 405.821 224.584 405.341 223.96C404.885 223.336 404.129 223.024 403.073 223.024C402.257 223.024 401.465 223.192 400.697 223.528C399.929 223.864 399.089 224.416 398.177 225.184V230.44C398.177 231.232 398.177 232.168 398.177 233.248C398.201 234.304 398.225 235.288 398.249 236.2L400.733 236.704V238H392.381ZM417.273 229.54C417.273 231.892 417.741 233.632 418.677 234.76C419.637 235.864 420.837 236.416 422.277 236.416C423.069 236.416 423.765 236.26 424.365 235.948C424.989 235.612 425.637 235.072 426.309 234.328V224.356C425.493 223.636 424.761 223.144 424.113 222.88C423.465 222.616 422.841 222.484 422.241 222.484C421.353 222.484 420.525 222.736 419.757 223.24C419.013 223.72 418.413 224.488 417.957 225.544C417.501 226.576 417.273 227.908 417.273 229.54ZM426.669 238.36L426.417 235.876C425.793 236.692 425.073 237.328 424.257 237.784C423.465 238.24 422.505 238.468 421.377 238.468C419.913 238.468 418.629 238.096 417.525 237.352C416.421 236.608 415.557 235.576 414.933 234.256C414.333 232.912 414.033 231.364 414.033 229.612C414.033 227.764 414.369 226.156 415.041 224.788C415.713 223.42 416.625 222.352 417.777 221.584C418.929 220.816 420.237 220.432 421.701 220.432C422.541 220.432 423.345 220.6 424.113 220.936C424.905 221.272 425.673 221.884 426.417 222.772V214.636L423.357 214.276V213.016L428.973 211.396L429.477 211.684L429.333 216.796V236.272L432.249 236.704V238L426.669 238.36ZM442.163 222.088C441.491 222.088 440.807 222.28 440.111 222.664C439.439 223.048 438.851 223.66 438.347 224.5C437.867 225.34 437.555 226.456 437.411 227.848H443.963C444.827 227.848 445.391 227.668 445.655 227.308C445.943 226.948 446.087 226.504 446.087 225.976C446.087 225.28 445.907 224.644 445.547 224.068C445.211 223.468 444.743 222.988 444.143 222.628C443.567 222.268 442.907 222.088 442.163 222.088ZM442.127 238.468C439.703 238.468 437.759 237.688 436.295 236.128C434.831 234.544 434.099 232.372 434.099 229.612C434.099 227.764 434.471 226.156 435.215 224.788C435.983 223.42 436.991 222.352 438.239 221.584C439.511 220.816 440.891 220.432 442.379 220.432C443.627 220.432 444.755 220.708 445.763 221.26C446.771 221.812 447.575 222.604 448.175 223.636C448.775 224.644 449.075 225.88 449.075 227.344C449.075 227.752 449.051 228.136 449.003 228.496C448.955 228.832 448.895 229.12 448.823 229.36H437.339C437.387 231.568 437.939 233.248 438.995 234.4C440.051 235.552 441.443 236.128 443.171 236.128C444.323 236.128 445.283 235.9 446.051 235.444C446.819 234.964 447.527 234.352 448.175 233.608L449.039 234.292C448.367 235.564 447.455 236.584 446.303 237.352C445.151 238.096 443.759 238.468 442.127 238.468ZM451.982 238V236.704L454.574 236.236C454.598 235.324 454.61 234.34 454.61 233.284C454.634 232.204 454.646 231.256 454.646 230.44V228.712C454.646 227.728 454.634 226.912 454.61 226.264C454.61 225.616 454.586 224.932 454.538 224.212L451.694 223.888V222.628L456.734 220.432L457.274 220.792L457.67 225.04C458.27 223.6 459.038 222.472 459.974 221.656C460.934 220.84 461.894 220.432 462.854 220.432C463.406 220.432 463.922 220.552 464.402 220.792C464.882 221.032 465.23 221.356 465.446 221.764C465.446 223.516 464.738 224.392 463.322 224.392C462.914 224.392 462.53 224.32 462.17 224.176C461.81 224.008 461.462 223.78 461.126 223.492L460.694 223.096C459.974 223.624 459.374 224.272 458.894 225.04C458.414 225.808 458.018 226.708 457.706 227.74V230.44C457.706 231.232 457.706 232.156 457.706 233.212C457.73 234.268 457.754 235.252 457.778 236.164L460.73 236.704V238H451.982Z" fill="black"/>
<g clip-path="url(#clip0_9_31)">
<path d="M93.3978 164.254C103.367 164.934 110.799 171.516 114.353 180.777C115.577 183.969 117.968 194.754 111.664 191.149L98.199 174.021L81.9756 172.202L80.7144 176.277C84.4585 177.809 89.0408 179.516 92.0865 182.216C97.5089 187.025 99.5394 202.837 96.3227 209.163C95.0468 211.672 93.304 212.142 91.8572 209.452C89.2993 204.693 89.8038 195.305 87.5356 190.062C83.5225 187.399 79.6366 184.378 75.1106 182.609C73.618 182.89 72.3525 188.596 71.7125 190.026C70.9599 191.708 70.0844 193.398 69.2275 195.032C68.5813 196.265 66.3652 199.003 66.1692 199.899C65.7523 201.801 67.1803 204.758 67.3346 206.878C67.4493 208.439 66.8009 211.331 67.0011 212.169C67.2742 213.319 71.1788 217.2 72.1545 219.123C73.0322 220.85 73.6534 223.054 74.0182 224.962C76.4845 224.503 78.9507 223.802 81.4336 223.418C89.0929 222.231 95.5764 221.618 103.279 223.012C113.405 224.844 118.913 230.233 109.008 238.035C106.315 240.157 107.958 239.59 106.475 242.153C105.468 243.893 103.309 245.232 101.443 245.864C100.515 246.18 96.3644 246.866 96.1872 247.07C96.01 247.273 95.9454 249.107 95.2824 250.117C93.2498 253.221 87.5502 253.09 84.4439 251.986C84.5482 254.206 86.2076 255.99 86.02 258.312C85.4071 265.95 73.3907 268.478 67.4805 266.195C58.239 262.626 55.3954 248.593 53.5045 240.014C50.1523 239.072 46.8105 238.157 43.5917 236.798C34.6023 233 16.9489 219.171 12.1311 210.793C9.49393 206.202 8.55163 201.882 6.67121 197.111C3.80471 189.839 0.979912 185.827 0.615085 177.372C0.456646 173.697 1.45731 169.963 1.3093 166.616C0.969488 158.957 -1.52801 155.935 1.45106 147.403C2.25993 145.089 5.75393 140.332 5.99159 139.004C6.26052 137.501 5.43914 133.59 5.68722 131.254C6.68997 121.843 15.9962 115.581 20.4929 107.766C21.775 105.538 22.5777 102.835 23.7555 100.625C27.064 94.4156 31.4002 89.343 37.1353 85.2497C36.0617 80.1169 34.767 75.2564 36.4703 70.0612C39.1554 61.8724 48.3136 60.7914 54.0216 66.7391C54.5928 67.3357 55.8936 70.0383 56.5003 69.4604C58.6434 60.5253 67.6953 60.4234 73.595 66.1341C74.5102 64.945 68.7126 58.4692 67.5639 57.3923C60.4425 50.7107 50.0397 46.3284 44.2421 38.2394C37.2291 28.4561 37.8649 16.4379 45.6764 7.3136C46.5311 6.31365 50.4192 1.88142 51.7367 3.74204C52.531 5.66295 50.0814 6.79388 49.012 8.14517C43.7355 14.8143 40.7294 21.3005 43.3895 29.9425C48.5283 46.6299 74.8625 50.9623 77.581 67.7765C78.1377 71.2233 78.1647 75.2938 78.6005 78.8238C78.6734 79.4079 78.3795 79.541 79.2196 79.4329C81.6942 77.8737 83.6413 75.589 84.7566 72.8947C94.1942 50.0995 56.7963 33.6409 76.9473 9.80829C79.7471 6.48412 89.4514 -0.42616 93.8043 0.020805C95.3887 0.18296 95.5722 1.72551 94.4214 2.70883C93.3478 3.62563 88.2673 4.89584 86.3806 5.91242C82.0403 8.25535 78.0647 12.3134 76.0884 16.8537C66.5424 38.7633 99.7271 52.8271 86.6683 76.0505C84.1583 80.516 80.7727 81.4411 77.7728 85.0501C78.171 85.6883 78.5984 85.5948 79.2134 85.68C87.1583 86.7777 89.9476 89.2827 96.6083 91.2016C98.7702 91.8252 105.024 92.0789 106.135 93.3408C108.525 96.0579 104.793 98.9621 102.744 100.394C97.5152 104.051 91.2485 106.386 85.3008 108.579C86.708 115.182 90.5772 122.759 90.7023 129.557C90.7377 131.524 89.9226 133.78 89.8392 135.753C89.7496 137.894 90.2832 139.661 90.2916 141.573C90.3041 144.459 90.079 147.259 89.8538 150.118C90.4104 150.677 103.138 147.588 105.452 147.66C110.153 147.806 118.988 153.255 122.175 156.764C123.808 158.562 130.373 167.215 127.104 169.275C126.07 169.738 125.14 169.828 124.062 169.435C122.038 168.697 114.345 162.423 111.996 160.677C110.478 159.548 107.611 156.452 105.908 156.317C103.646 156.138 95.3867 157.608 92.6244 158.076C88.6071 158.756 83.1931 158.733 84.0166 164.252C87.104 164.406 90.3229 164.042 93.3978 164.252V164.254ZM63.8886 65.394C61.243 65.9366 59.4689 68.9053 59.1104 71.4333C58.6747 74.5038 59.6712 76.7698 60.2028 79.6907C60.6385 82.0856 59.5753 82.6781 61.6954 84.8547C64.3472 87.576 68.9482 88.3098 72.1378 86.0895C80.1911 80.4848 72.5548 63.6145 63.8906 65.394H63.8886ZM43.304 88.4346C48.7535 93.6214 56.5899 90.4199 57.2925 82.9192C57.7803 77.7136 52.7457 67.0281 47.0919 66.1549C36.1534 64.4627 37.2645 82.6864 43.304 88.4325V88.4346ZM103.194 95.6546C92.7766 94.7295 84.7608 87.287 73.8244 89.0229C72.5964 89.2183 71.3873 90.2099 69.8613 90.474C67.5848 90.8669 65.2791 90.553 63.1652 89.6216C61.6141 88.9376 60.6301 87.339 59.002 87.3348C57.059 93.6859 49.4769 95.6296 43.8523 92.6651C42.3096 91.8523 39.4931 88.3867 38.4591 88.6404C37.8253 88.7963 34.2771 91.5259 33.6058 92.1599C29.5073 96.0267 23.3886 105.864 24.0807 111.552C26.4469 131.023 65.7523 153.849 82.355 140.357C92.0553 132.476 85.1653 119.377 81.9298 109.964C74.8438 109.39 76.572 119.396 69.8342 119.354L72.3421 123.508L74.6999 122.321C78.7756 124.422 72.3234 128.487 69.9259 129.212C53.984 134.037 42.8182 113.203 39.81 100.64C37.9233 101.197 36.2847 104.972 34.3584 103.263C32.9512 101.103 38.2298 97.8354 39.9372 97.2262C41.6091 96.6296 45.6847 95.8687 46.6104 97.8437L46.4644 99.1326L43.5708 100.426C47.9613 104.428 52.5873 107.606 58.5537 108.77C70.347 111.068 89.0658 105.247 99.1496 98.8956C99.5853 98.6212 103.605 96.0641 103.19 95.6546H103.194ZM73.5888 111.452L64.0032 112.487C67.689 116.263 71.6375 117.377 73.5888 111.452ZM3.96315 171.323V181.093C3.96315 184.372 7.73233 192.868 9.87126 195.575C14.5056 201.442 19.5611 201.508 26.0862 203.105C27.5205 203.456 28.6942 204.835 27.0348 205.35C23.2635 206.521 15.4771 203.712 11.8872 202.092C17.3262 223.532 42.9371 231.463 59.6128 216.63C64.5223 212.265 64.8642 208.801 63.1652 202.506C60.5926 203.452 58.3453 205.178 55.7727 206.148C50.3775 208.186 43.2894 209.163 37.6523 207.784C36.8684 207.593 34.6357 207.294 34.84 206.088C35.1381 204.34 37.7649 205.419 38.7593 205.435C52.9834 205.672 66.2214 201.124 69.4193 185.875C59.2959 189.058 48.7535 190.925 38.2235 188.503C36.9018 188.199 31.0562 186.567 30.7143 185.596C30.5246 185.058 30.6706 184.37 30.6435 183.794C33.0888 183.424 35.0923 184.696 37.3896 185.176C54.4281 188.738 79.9805 185.23 80.6768 163.423C80.4329 163.148 76.1446 165.522 75.367 165.816C64.7099 169.844 54.1175 169.62 43.2519 166.441C41.409 165.903 31.1313 162.859 36.5286 161.132C49.5123 166.021 62.8775 167.861 75.9591 162.248C81.1396 160.026 86.9331 154.77 86.9331 148.66V140.553C72.463 153.764 50.4337 145.359 36.9435 134.896C29.7095 129.285 23.5179 122.427 21.4644 113.319C21.0704 111.571 20.5075 113.379 20.0322 113.943C12.2166 123.181 4.34049 130.09 11.3973 142.91C15.3791 150.145 21.8146 153.583 28.5546 157.808C27.3058 159.874 23.6492 157.87 21.873 156.995C15.6647 153.939 10.8698 148.575 7.50718 142.64C-0.4106 154.377 1.9639 168.77 14.3805 176.11C16.3485 177.274 26.3885 181.104 26.6992 181.707C28.7464 185.69 20.914 182.763 19.5256 182.206C13.5091 179.796 8.42238 175.925 3.96524 171.321L3.96315 171.323ZM61.9206 118.936C61.7058 119.693 62.5231 119.932 62.6836 120.491C63.0025 121.601 62.1165 122.944 60.9491 122.637C60.6155 122.549 57.4426 118.57 56.2189 117.755C54.4051 116.548 52.016 115.787 49.825 116.028C54.0132 122.63 61.4661 129.144 69.8238 125.982C69.2651 122.271 65.5355 119.533 61.9185 118.936H61.9206ZM106.113 150.949C101.22 151.949 94.9489 152.224 90.2478 153.631C89.3576 153.897 88.1005 154.307 88.186 155.521L105.848 153.049L106.113 150.949ZM124.041 165.082C121.098 159.117 115.74 153.571 109.033 152.199C108.954 153.249 108.919 154.255 109.844 154.92L124.041 165.082ZM99.0245 168.416C94.0962 167.055 88.9449 167.747 83.8831 167.564L83.1827 169.242L97.5944 170.77L99.0245 168.418V168.416ZM112.363 186.704C112.069 180.104 107.324 173.657 101.954 170.075L101.307 172.545L112.363 186.704ZM77.7645 179.224C77.5789 180.083 78.2023 180.168 78.7109 180.563C80.2015 181.725 86.3473 185.758 87.8942 186.388C88.9157 186.804 89.3681 186.837 90.0769 185.877V184.621C88.4508 183.37 79.1904 178.023 77.7645 179.222V179.224ZM94.4339 205.83C96.0413 199.957 95.1156 193.216 92.1449 187.962L90.7148 189.798L94.4339 205.83ZM42.9475 227.037C40.3729 227.264 37.2604 227.037 34.6086 227.037C34.4377 227.037 33.881 225.965 33.9853 227.241C43.7439 235.087 57.403 241.39 68.1831 231.411C73.2052 226.763 69.9593 219.497 65.4062 215.84C62.0936 218.474 59.1145 221.588 55.2661 223.522C52.0911 225.116 46.4665 226.727 42.9475 227.037ZM76.1342 231.573C75.2211 227.301 81.025 228.854 83.7539 229.168C89.5765 229.84 95.3179 231.395 100.805 233.37C103.815 234.453 105.331 236.789 108.623 234.32C111.679 232.027 111.781 228.952 108.072 227.37C100.855 224.293 88.2361 225.364 80.6039 226.752C79.0945 227.027 73.0134 227.698 73.6201 229.686C74.1871 231.544 91.5216 240.236 93.623 243.444C96.1413 244.375 104.401 242.874 104.042 239.317C103.884 237.758 98.2782 235.858 96.748 235.338C89.9601 233.031 83.2077 232.442 76.1363 231.573H76.1342ZM70.9391 233.792C70.2282 233.866 68.0809 235.642 68.2018 236.334C73.7785 241.98 78.7068 248.46 87.2562 249.373C88.6905 249.527 93.8294 249.699 92.5744 247.003C91.5612 244.826 79.2592 237.276 76.522 235.964C75.5588 235.503 71.675 233.715 70.9391 233.792ZM56.9673 239.98C57.9763 250.768 65.1978 271.114 79.72 262.044C87.8775 256.949 77.9 250.639 74.2079 247.005C72.5464 245.369 66.2047 238.033 64.564 237.918C64.0282 237.881 63.3736 238.594 62.8149 238.752C64.0282 244.673 67.885 249.816 70.618 255.175C70.7223 256.329 69.2338 256.425 68.3895 255.716C67.5452 255.007 64.3993 250.049 63.6676 248.783C62.0477 245.978 60.7531 242.96 59.6253 239.924C58.9436 239.087 57.772 239.669 56.9673 239.978V239.98Z" fill="black"/>
<path d="M74.3184 131.073C75.8673 130.668 76.5282 131.678 75.884 133.065C75.0689 134.817 70.668 136.944 68.7626 137.193C67.272 137.389 61.0116 137.563 60.6884 135.728C60.3007 133.528 65.377 134.859 66.7154 134.736C70.4345 134.393 72.2003 131.628 74.3184 131.073Z" fill="black"/>
<path d="M48.4573 77.4787C48.9201 77.855 49.9208 79.9942 50.0605 80.6595C51.6449 88.2059 42.0906 88.1144 43.6708 79.3206C44.0919 76.9736 46.7103 76.0547 48.4552 77.4767L48.4573 77.4787Z" fill="black"/>
<path d="M63.8843 74.9404C68.7396 73.5018 69.9988 82.7405 66.1962 83.518C61.637 84.4514 60.4528 75.957 63.8843 74.9404Z" fill="black"/>
</g>
<defs>
<clipPath id="clip0_9_31">
<rect width="128" height="267" fill="white"/>
</clipPath>
</defs>
</svg>
