<?xml version="1.0" encoding="UTF-8"?>
<svg id="Ebene_1" xmlns="http://www.w3.org/2000/svg" version="1.1" viewBox="0 0 937 511.1">
  <!-- Generator: Adobe Illustrator 30.0.0, SVG Export Plug-In . SVG Version: 2.1.1 Build 123)  -->
  <g id="XHmDc0">
    <g>
      <path d="M587,236.2c-5.5,13.6-10.3,26.8-27.6,18.6-4-1.9-4.3-3.5-6.9-6.2-.5-.6-.5-.6-1.4-.4-2.4,6.5-5.9,18.1-13.2,20.4s-16.7-2.7-21.5-8.1c-1.1-1.3-.8-3.4-2.7-3-2.6,10.4-7.7,27.1-21.5,25.1-7.7-1.1-15.3-6.4-16.5-14.5-1-.9-3.5,3.9-4.5,4.7s-2.4.9-3.3,1.6c-1.8,1.4-3.1,3.8-6,4.4l4.3,19.8c.6,9.3.9,16.1-.6,25.2-.8,5.1.9,7.3-.5,12.8-2.9,11.3-5.1,25.9-12.9,35.1-4.3,5-10.1,2.7-15.3,1.3-.8-.2-1.7.3-2.6,0-10.1-3.5-9.7-23.8-9.4-32.6.4-9.5,1.5-22.2,2.7-31.2.4-3.3,1.9-6.9,2-10.3l-5,6c-5.9,5.5-15.2,2.8-21.2-1.3-3.7,3.1-4.3,7.9-8.5,10.9-12.8,9.2-26.9,0-35.2-10.6-3.1-4-5.2-8.8-8.7-12.3-1.1,5.8-3,11.7-3.4,17.6-.5,7.8,1.4,15.9,1,23.6-2.9,3-6.9,2.1-10.6,1.3-3.7-.8-8.9-2.4-10.7-5.9-6.3,11.6-10.3,18.8-24.9,13.6-14.4-5.1-14.2-25.5-11.4-38l-1.2-.6,2.3-13-3.5,5.8c-7.2,18-14.1,37.7-17.9,56.7-.5,2.5.8,6.3-2.3,8.3-3.7,2.4-14.7-.8-17.2-4s-.4-4.7-2.7-4.3c-2.5,6.9-6.7,18-15.1,18.4-5.5.3-13.3-3.2-16.8-7.5-1.5-1.8-2-4.9-3.2-6.8s0-1.2-1.5-.9c0,.9,0,1.8-.3,2.6-2.3,6.6-7.2,20.5-12.3,25s-19.2,0-24-5.3c-5.6-6.1-5.7-20.1-5.3-28,.8-16.1,10.4-45.7,22.3-56.9,7.7-7.3,18.4-6,27.6-2.6.2-1.9.5-4.4,1.9-5.7.7-.6,5.5-2.2,6.4-2.2,1.2,0,9.7,3.4,10.9,4.3,5.2,4,1.8,6.2.8,10-3.3,12.8-7.2,33.5-6.8,46.5,0,1.4,0,3.2,1,4.3,1.2-1.9,2.8-4.2,3.8-6.2,10.7-22.5,13.7-42.4,18-66.5.8-4.7.7-6.9,6.1-7.2,11.5-.6,18.8,5.9,13.4,17.4l-1.4,15.9c2.7-2.6,2.7-6.9,4-10,3-7.1,15-31,21.3-34,1.1-.5,3.6-1.2,4.8-1.2s10.9,3.2,11.8,3.9,2.3,3.7,2.4,4.4c.9,4.8-1.9,9.2-2.9,13.7-2.2,10.3-4.3,25.3-4.7,35.7-.1,3.7.7,7.7.9,11.4,3.6-2.8,5.9-7.6,7.9-11.7,7.6-15.3,6.8-21.4,8.8-37.1,3.2-25.4,8.2-49.9,11.8-75.4.9-6.2.8-12.6,2.2-18.7,6-3.9,18.6-.9,19.8,6.9-2,20.8-5.9,41.5-9.3,62.2,1.8.4,1.1-.5,1.7-1.3,6.1-10.1,15.4-28.1,30.1-21.4,24.3,11.1-.5,45.4-15.7,53.7,4.7,5.7,7.5,12.6,13.3,17.3,2.1,1.7,3.8,3.4,6.5,1.5,1.1-3.3,5.9-7.2,6.7-10.3.6-2.4-1.3-8.9-1.2-11.8.2-17.6,11.2-47.5,24.3-59.6,8.2-7.6,18.3-6.1,27.6-1.3.1-10,11.8-7.4,17.5-3.9s3.5,6.6,1.9,11.7c-3,9.9-5.6,21-7.4,31.2-.6,3.3-1,7.5-1.1,10.9,2.1-2,5.4-4,7.3-6.1,11.4-12.3,11-24.3,13.1-40.1,2.8-6.3,2.5-17.9,5.7-23.6,3.3-6,20.2-1.9,20.6,6.9.2,3.4-3.8,13.4-4.7,17.6-3,13.3-4.2,27-3.3,40.6,10.5-16.9,15.5-37.2,20-56.5,1-4.5,2.3-17.4,4.9-20.3,2.9-3.3,12.8-.7,16,2,6.9,5.8,1.4,12.2-.1,19.2-2.4,14.2-4.5,28.6-2.9,43,1.5-2,3.1-4.2,4.2-6.4,9-18.2,10-29.9,13.7-49.2,1.2-6.1,2.9-12.1,4.1-18.2,2.9-6.8,17.6-2.3,20.5,3.3,2,4-.5,6.8-1.3,10.6-1.8,8.9-4.2,19.1-5.2,27.9-.7,6.2-.5,12.8-.4,19.1l1.3.3c1.5-4.8,6.5-10,7.6-14.8s-.7-3.6.1-5.8c.8-2.3,4.9-4.3,6-6.7,1.3-2.8,3-9.7,4.1-13.2,3.4-10.9,5.3-19.2,6.9-30.4.6-4.2,2.9-12.7,5-16.3,3.8-6.5,20.8-2,22.5,4.1,1.3,4.4-1.8,5.5-3.3,8.5-1.6,3.4-2.6,9.6-2,13.3,2.7,17.5,18.8,30.6,14.9,50.8-4.4,22.5-31.7,19.9-45.8,8.4ZM600.9,189.7c-.9,0-.9.7-1.1,1.3-1.8,8-3.6,16-5.7,24.1-.3,1.2-1.4,2.1-1.7,3-2.3,8.2,12.7,14.8,16.1,6.8,2.6-6.1.4-16.1-1.8-22.1-1.7-4.6-4.8-8.5-5.8-13.1ZM415.9,290.1c1.2.2,1.7-.6,2.3-1.4,5.7-7.3,13.9-25.6,17.3-34.6,1.8-4.6,6.7-17.4,7-21.7s-4.5-4.1-7.6-1.6c-10.9,8.8-19.1,38-19.7,51.5-.1,2.6.4,5.1.7,7.7ZM376.7,240.9c-1.3-.2-1.9.9-2.6,1.7-7.3,8.3-13,20.6-16.7,30.9.4.5,4.8-3.2,5.3-3.7,6.2-6.5,14.4-19.8,14-28.9ZM447.2,351.4c1.6-5.6,2.7-11.3,4-16.9,2.6-11.1,3.6-18.9,3.3-30.7,0-4.3-.4-8.7-1.4-12.9-1-.2-.8,1.2-1,2-2.4,10.8-4.6,25.9-5.7,36.9s-1.4,14.9-.7,20.6.4,2,1.3,1ZM193,367.3l11.3-21.7c5.8-12.3,8.5-24.7,10.9-38.3.3-1.5,2.3-4.4,0-5.1-2.4-.8-5,1.6-6.5,3.3-9.1,10.2-15.7,32-17,45.5-.5,5.3-.1,10.7,0,16l1.3.3Z"/>
      <path d="M879.8,82.5c10.5-6,17.8-15.8,25-25.3,1.6-.3.9.7,1,1.7.2,1.5.7,6.7.5,7.9-.5,3.3-3.8,8.2-5.1,11.5l1.3,1.3c-3.8,1.9-1.7,2.9-2.3,4.3s-11,12.3-12.8,13.2c-4.8,2.7-11.1,2.7-16,.2s-9.6-7.4-10.2-6.8c-3,14.8-7.5,29.4-9.9,44.3-.8,4.8-2.4,14.8-1.8,19.1.1.9,1.1,1.8,1,2.7l-3.1,4.4c-2.9,1.6-14.8-2.2-17.4-4.4-3.6-3-2.8-8.2-3.5-12.5-.2-1-.3-4-1.2-4.4-3.8,12.3-17.4,36.9-30.4,40.4-7.1,1.9-16.3-1.6-22.6-5-1.8-1-2.6-3.2-4.9-2.8-1.5,5.1-3.5,11.2-7,15.3-10.7,12.9-31.4,2.4-33-13-1.1-10.9.1-23.2,2-33.9l-1.3-.3c-7.4,16.7-12.3,34.3-16.2,52.1-.5,2.2-2.2,5.7-2.3,7.6-.3,3.1,2.9,6.4-.9,9.1-4,2.9-13.9,0-17.3-3.2s-1.6-3.4-3.3-4.4c-.6,2-2.2,4.6-3.3,6.3-7,10.2-13.6,18.8-27.3,16.7-38.7-6-23.1-70.1-3.2-87.8,7.7-6.9,24.1-6.2,29.4,3.1s2.5,15.4-1.2,19.7c-1.5,1.7-6.1,6.1-8.2,5.1-6-2.8,1.4-12.8-2.3-17-5.7,6.6-10,15.6-12.7,23.9-2.8,9-5,20.2-3.6,29.5.8,5.5.9,11.9,7.7,7.2,8-5.5,25.5-32.4,26.7-41.8.9-7.3,1.2-15.5,2.1-23.2,3.2-26,8.9-52.8,13.2-79.3.4-2.5-.7-7.7,2.1-9.2,4.8-2.6,17.2,2.3,17.6,8.9l-12.3,81.9,14.5-28.4c5.5-7.8,9.6-12,19.6-8.7.9.3,6.2,4.4,6.5,5,2.3,4.8-1.6,16.5-2.4,22-2,13.1-4,26.9-2.2,40.1,4.9-3.9,6.6-10.3,9.2-15.8.6-1.3,2.5-3.1,2.6-4,.2-1.1-.6-6.2-.5-8.5,1-18.6,7.9-43.9,21.5-57.3,9.6-9.6,32.8-3,34.4,10.8,1,8.4-1.5,18.2-5.6,25.6-5.1,9.1-16.1,21-27.6,17.3-2.1,3.6-1.3,22.5,3.6,22.6,8.3.3,22.4-19.7,26.2-26.4,6.7-11.8,14.9-34.4,16.7-47.9.5-3.6.6-21.3,2.7-22.6,4-2.3,13,.6,16,4,5,5.6,1.8,11.2,1.3,17.3,0,.7-.5,2.5.6,2.3,1-8,5-15.2,7.6-22.6,2-5.5,3.6-13.7,6.1-18.5,2.1-4.1,5.9-3.9,10-2.8,3.7,1,10.5,5.7,10.9,9.8.2,1.9-4,11.6-4.5,15.4-.3,2.7-.1,5.4-.2,8.1ZM783.9,132.4c1.3.3,1.6-.7,2.3-1.3,4.4-3.6,8.8-9.5,11.3-14.6,2.4-4.9,5.1-11.3,3.6-16.6-9.4,7.9-13.9,21.1-17.3,32.6Z"/>
      <path d="M146.8,249.8c7.4,6.6,15.2,17.7,14.2,27.9-1,9.3-6.3,17.7-11.2,25.2-2.6,3.9-5.5,7.9-8.7,11.5-.8.9-1,2.4-1.6,3s-3,.4-2.3,1.6c.6,1.1,8.2,3.9,10.2,5.1,11.8,7.2,20.1,22.3,19.1,36.1-2,27.1-35.6,57.6-57,71.4-14,9-38.2,20.9-54.7,14.4-2.9-1.1-11.4-9.7-12.8-12.4-2.2-4.1-3.5-12.3,3.5-10.1s4.1,6.6,10.3,6.4c8.8-.4,25.3-7.7,33.2-12.1,21.5-12,58.7-44.5,58.8-71,0-5.2-.4-7.8-5.6-9.2s-17.3,0-23.8,3.1c-6.3,2.9-11.8,9.3-18.5,10.7l-4-1.3c-1.8.4-2.7,12.1-3.1,14.2-2.5,14.7-4.6,27.3-4,42.6.1,3.3,1.8,5.8-2.3,8.4-.5.3-5.6.6-6.5.5-2.1-.2-10.9-4.7-12.1-6.6-.8-1.2-1.5-5.5-1.6-7-.1-4.6.9-12.2,1.4-17.1,2.1-23.4,8-47.4,13.7-70.1,2.7-10.7,5-21.4,8.8-31.8,4.4-5.2,19.3,1.3,20.4,6.7s-4.4,15.5-5.7,20c-.8,2.8-.9,6.7-1.7,9.6-.3,1-3.5,5.7-.3,4.4.7-.3,6.4-5,7.5-5.9,11.1-9.8,31.9-34.2,33.5-49,.2-1.7.1-3.4.1-5.1-.1-.5-3.4-1.8-4.1-2-19.7-4.4-54.6,19.8-68.8,32.8-6.6,6.1-25.4,25.9-27.3,33.9-1.1,4.5,1.5,4.9,1.5,5.6s-1.4,3.6-1.6,3.7c-3.1,2.9-7.8,1.2-10.2-1.7-9.2-11-6.4-23.4,1-34.2,9.3-13.6,24.8-25.6,37.8-35.1,17.3-12.6,55.1-34.8,74.7-17.3Z"/>
      <path d="M570.8,122.6c4.5-.8,12.2,1.5,15.2,5.1,4.6,5.6-1,8.1-3.6,12.4s-2.7,5.6-3.1,6.9c-1.4,4.7.6,12.4-4.7,13.3-7.6,1.3-13.6-5-14.3-12.3-.6-7.1,1.9-24,10.5-25.4Z"/>
    </g>
  </g>
</svg>