<svg width="452" height="115" viewBox="0 0 452 115" fill="none" xmlns="http://www.w3.org/2000/svg">
<path d="M20.736 31.744H16.776C16.776 35.536 16.776 39.04 16.776 42.256C16.824 45.424 16.872 48.544 16.92 51.616H21.312C25.92 51.616 29.352 50.776 31.608 49.096C33.864 47.416 34.992 44.992 34.992 41.824C34.992 38.464 33.864 35.944 31.608 34.264C29.352 32.584 25.728 31.744 20.736 31.744ZM21.888 10.144H16.92C16.872 13.216 16.824 16.336 16.776 19.504C16.776 22.624 16.776 25.6 16.776 28.432H20.52C24.888 28.432 28.056 27.688 30.024 26.2C31.992 24.712 32.976 22.336 32.976 19.072C32.976 15.808 32.04 13.504 30.168 12.16C28.344 10.816 25.584 10.144 21.888 10.144ZM3.168 9.784V6.832H24.048C29.04 6.832 32.904 7.936 35.64 10.144C38.376 12.352 39.744 15.16 39.744 18.568C39.744 21.112 38.88 23.44 37.152 25.552C35.424 27.664 32.568 29.128 28.584 29.944C33.384 30.616 36.84 32.032 38.952 34.192C41.112 36.352 42.192 38.896 42.192 41.824C42.192 43.984 41.544 46.072 40.248 48.088C39 50.104 36.96 51.76 34.128 53.056C31.296 54.352 27.576 55 22.968 55H3.168V52.048L9.792 51.256C9.888 48.232 9.936 45.16 9.936 42.04C9.936 38.92 9.936 35.8 9.936 32.68V29.152C9.936 26.032 9.936 22.936 9.936 19.864C9.936 16.744 9.888 13.648 9.792 10.576L3.168 9.784ZM74.5132 55.72C72.7853 55.72 71.3453 55.216 70.1932 54.208C69.0412 53.2 68.3212 51.856 68.0332 50.176C66.0653 52.096 64.3373 53.536 62.8492 54.496C61.3612 55.456 59.5612 55.936 57.4492 55.936C54.8092 55.936 52.5292 55.192 50.6092 53.704C48.7372 52.168 47.8012 49.912 47.8012 46.936C47.8012 45.544 48.1132 44.248 48.7372 43.048C49.4092 41.848 50.6092 40.672 52.3372 39.52C54.0652 38.368 56.5372 37.216 59.7532 36.064C60.8572 35.68 62.1292 35.272 63.5692 34.84C65.0092 34.408 66.4492 34.024 67.8892 33.688V31.888C67.8892 28.384 67.3612 26.056 66.3052 24.904C65.2492 23.752 63.5212 23.176 61.1212 23.176C60.5932 23.176 59.9932 23.2 59.3212 23.248C58.6972 23.296 58.0012 23.416 57.2332 23.608L55.8652 28.288C55.1932 30.592 53.9452 31.744 52.1212 31.744C50.1052 31.744 48.9772 30.76 48.7372 28.792C49.4092 26.056 50.9932 23.896 53.4892 22.312C56.0332 20.68 59.1292 19.864 62.7773 19.864C66.5693 19.864 69.3772 20.824 71.2012 22.744C73.0252 24.616 73.9373 27.832 73.9373 32.392V47.728C73.9373 49.264 74.1773 50.368 74.6572 51.04C75.1373 51.664 75.7613 51.976 76.5293 51.976C77.1533 51.976 77.6813 51.832 78.1133 51.544C78.5453 51.256 78.9533 50.872 79.3372 50.392L80.7773 51.976C79.9132 53.368 78.9533 54.352 77.8973 54.928C76.8893 55.456 75.7613 55.72 74.5132 55.72ZM54.2092 45.856C54.2092 47.776 54.7612 49.144 55.8652 49.96C56.9692 50.776 58.3372 51.184 59.9692 51.184C60.6892 51.184 61.3612 51.088 61.9852 50.896C62.6572 50.704 63.4492 50.344 64.3612 49.816C65.2732 49.24 66.4492 48.424 67.8892 47.368V36.352C66.6412 36.688 65.4172 37.072 64.2172 37.504C63.0172 37.888 62.0332 38.224 61.2652 38.512C59.2012 39.328 57.6652 40.168 56.6572 41.032C55.6492 41.896 54.9772 42.736 54.6412 43.552C54.3532 44.368 54.2092 45.136 54.2092 45.856ZM83.0025 55V52.408L88.3305 51.4C88.3785 49.576 88.4025 47.608 88.4025 45.496C88.4505 43.384 88.4745 41.512 88.4745 39.88V36.424C88.4745 34.456 88.4505 32.824 88.4025 31.528C88.4025 30.232 88.3545 28.864 88.2585 27.424L82.5705 26.776V24.256L92.6505 19.864L93.7305 20.584L94.3065 26.344C96.0825 24.424 98.1225 22.864 100.426 21.664C102.73 20.464 104.986 19.864 107.194 19.864C110.314 19.864 112.618 20.92 114.106 23.032C115.642 25.096 116.41 28.48 116.41 33.184V39.88C116.41 41.512 116.41 43.384 116.41 45.496C116.458 47.608 116.506 49.576 116.555 51.4L121.595 52.408V55H104.89V52.408L110.218 51.4C110.266 49.624 110.29 47.68 110.29 45.568C110.338 43.408 110.362 41.512 110.362 39.88V33.76C110.362 30.448 109.882 28.168 108.922 26.92C108.01 25.672 106.498 25.048 104.386 25.048C102.754 25.048 101.17 25.384 99.6345 26.056C98.0985 26.728 96.4185 27.832 94.5945 29.368V39.88C94.5945 41.464 94.5945 43.336 94.5945 45.496C94.6425 47.608 94.6905 49.576 94.7385 51.4L99.7065 52.408V55H83.0025ZM124.867 55V52.408L130.627 51.4C130.675 49.48 130.699 47.56 130.699 45.64C130.747 43.672 130.771 41.752 130.771 39.88V8.272L124.867 7.552V5.032L136.099 1.792L137.107 2.368L136.819 12.592V37.72L149.131 24.904L143.803 23.608V20.8H160.579V23.608L153.811 24.616L145.891 32.752L157.699 51.544L162.451 52.408V55H152.659L141.571 37.144L136.819 42.04C136.819 43.576 136.819 45.136 136.819 46.72C136.867 48.304 136.915 49.864 136.963 51.4L142.723 52.408V55H124.867ZM170.035 38.152C170.035 42.856 170.971 46.312 172.843 48.52C174.763 50.728 177.163 51.832 180.043 51.832C181.627 51.832 183.067 51.496 184.363 50.824C185.659 50.104 187.003 48.928 188.395 47.296V27.928C186.667 26.392 185.131 25.36 183.787 24.832C182.491 24.256 181.219 23.968 179.971 23.968C178.195 23.968 176.539 24.472 175.003 25.48C173.515 26.488 172.315 28.048 171.403 30.16C170.491 32.224 170.035 34.888 170.035 38.152ZM178.243 55.936C175.315 55.936 172.747 55.192 170.539 53.704C168.331 52.216 166.603 50.152 165.355 47.512C164.155 44.872 163.555 41.8 163.555 38.296C163.555 34.6 164.203 31.384 165.499 28.648C166.843 25.864 168.667 23.704 170.971 22.168C173.275 20.632 175.843 19.864 178.675 19.864C180.355 19.864 182.011 20.224 183.643 20.944C185.323 21.664 186.979 22.96 188.611 24.832L193.507 19.864L194.659 20.584L194.443 30.304V56.944C194.443 58.864 194.443 60.808 194.443 62.776C194.491 64.744 194.539 66.712 194.587 68.68L200.347 69.688V72.208H181.843V69.688L188.467 68.608C188.515 66.64 188.539 64.672 188.539 62.704C188.587 60.784 188.611 58.864 188.611 56.944V50.32C187.219 52.24 185.659 53.656 183.931 54.568C182.251 55.48 180.355 55.936 178.243 55.936ZM215.729 55.936C212.801 55.936 210.497 54.976 208.817 53.056C207.137 51.088 206.321 47.728 206.369 42.976L206.585 25.048L201.473 23.968V21.376L212.057 20.368L212.777 21.088L212.417 31.168V42.328C212.417 45.448 212.897 47.656 213.857 48.952C214.817 50.2 216.257 50.824 218.177 50.824C221.537 50.824 224.897 49.264 228.257 46.144L228.473 24.976L223.361 23.968V21.376L233.801 20.368L234.521 21.088L234.305 31.168V51.4L239.201 52.408V55L229.193 55.576L228.473 49.168C226.553 51.52 224.489 53.248 222.281 54.352C220.121 55.408 217.937 55.936 215.729 55.936ZM243.45 55V52.408L248.85 51.4C248.898 49.576 248.922 47.608 248.922 45.496C248.97 43.336 248.994 41.464 248.994 39.88V36.496C248.994 34.528 248.97 32.896 248.922 31.6C248.922 30.256 248.874 28.864 248.778 27.424L243.018 26.776V24.256L254.106 19.864L255.186 20.584L254.97 30.376V39.88C254.97 41.464 254.97 43.336 254.97 45.496C255.018 47.608 255.066 49.576 255.114 51.4L260.154 52.408V55H243.45ZM251.946 11.944C250.602 11.944 249.45 11.512 248.49 10.648C247.578 9.784 247.122 8.68 247.122 7.336C247.122 5.944 247.578 4.84 248.49 4.024C249.45 3.16 250.602 2.728 251.946 2.728C253.29 2.728 254.418 3.16 255.33 4.024C256.29 4.84 256.77 5.944 256.77 7.336C256.77 8.68 256.29 9.784 255.33 10.648C254.418 11.512 253.29 11.944 251.946 11.944ZM276.055 55.936C274.039 55.936 272.191 55.696 270.511 55.216C268.831 54.784 267.103 54.112 265.327 53.2L265.039 45.28H268.999L270.367 51.544C272.047 52.312 273.991 52.696 276.199 52.696C278.935 52.696 280.951 52.192 282.247 51.184C283.591 50.176 284.263 48.856 284.263 47.224C284.263 45.688 283.711 44.464 282.607 43.552C281.503 42.592 279.823 41.728 277.567 40.96L274.255 39.736C271.615 38.776 269.503 37.528 267.919 35.992C266.335 34.456 265.543 32.464 265.543 30.016C265.543 28.24 266.023 26.584 266.983 25.048C267.943 23.512 269.359 22.264 271.231 21.304C273.103 20.344 275.383 19.864 278.071 19.864C280.039 19.864 281.815 20.128 283.399 20.656C285.031 21.136 286.615 21.856 288.151 22.816L287.863 30.16H284.119L282.967 24.4C281.335 23.584 279.679 23.176 277.999 23.176C275.791 23.176 274.111 23.632 272.959 24.544C271.855 25.408 271.303 26.584 271.303 28.072C271.303 29.656 271.783 30.856 272.743 31.672C273.751 32.488 275.479 33.352 277.927 34.264L280.159 35.056C283.759 36.4 286.303 37.936 287.791 39.664C289.327 41.392 290.095 43.384 290.095 45.64C290.095 47.464 289.567 49.168 288.511 50.752C287.455 52.288 285.895 53.536 283.831 54.496C281.767 55.456 279.175 55.936 276.055 55.936ZM311.378 55.936C306.434 55.936 302.498 54.328 299.57 51.112C296.642 47.896 295.178 43.528 295.178 38.008C295.178 34.216 295.946 30.976 297.482 28.288C299.066 25.552 301.13 23.464 303.674 22.024C306.218 20.584 308.93 19.864 311.81 19.864C313.97 19.864 315.962 20.272 317.786 21.088C319.61 21.904 321.122 23.032 322.322 24.472C323.522 25.864 324.266 27.448 324.554 29.224C324.218 31.048 323.114 31.96 321.242 31.96C320.042 31.96 319.13 31.648 318.506 31.024C317.93 30.352 317.522 29.512 317.282 28.504L315.986 23.752C315.314 23.512 314.642 23.368 313.97 23.32C313.346 23.224 312.722 23.176 312.098 23.176C309.026 23.176 306.482 24.376 304.466 26.776C302.498 29.176 301.514 32.68 301.514 37.288C301.514 41.8 302.594 45.256 304.754 47.656C306.914 50.056 309.674 51.256 313.034 51.256C315.098 51.256 316.994 50.8 318.722 49.888C320.45 48.928 321.866 47.56 322.97 45.784L324.77 46.72C323.762 49.696 322.13 51.976 319.874 53.56C317.618 55.144 314.786 55.936 311.378 55.936ZM327.977 55V52.408L333.377 51.4C333.425 49.576 333.449 47.608 333.449 45.496C333.497 43.336 333.521 41.464 333.521 39.88V8.272L327.617 7.552V5.032L338.633 1.792L339.641 2.368L339.353 12.592V26.488C341.129 24.52 343.193 22.936 345.545 21.736C347.897 20.488 350.225 19.864 352.529 19.864C355.649 19.864 357.953 20.92 359.441 23.032C360.977 25.096 361.745 28.48 361.745 33.184V39.88C361.745 41.512 361.745 43.384 361.745 45.496C361.793 47.608 361.841 49.576 361.889 51.4L366.929 52.408V55H350.225V52.408L355.481 51.472C355.529 49.648 355.553 47.68 355.553 45.568C355.601 43.408 355.625 41.512 355.625 39.88V33.76C355.625 30.448 355.169 28.168 354.257 26.92C353.345 25.672 351.833 25.048 349.721 25.048C347.945 25.048 346.265 25.408 344.681 26.128C343.097 26.848 341.393 28.048 339.569 29.728V39.88C339.569 41.464 339.569 43.336 339.569 45.496C339.617 47.608 339.665 49.576 339.713 51.4L344.681 52.408V55H327.977ZM387.707 23.176C386.363 23.176 384.995 23.56 383.603 24.328C382.259 25.096 381.083 26.32 380.075 28C379.115 29.68 378.491 31.912 378.203 34.696H391.307C393.035 34.696 394.163 34.336 394.691 33.616C395.267 32.896 395.555 32.008 395.555 30.952C395.555 29.56 395.195 28.288 394.475 27.136C393.803 25.936 392.867 24.976 391.667 24.256C390.515 23.536 389.195 23.176 387.707 23.176ZM387.635 55.936C382.787 55.936 378.899 54.376 375.971 51.256C373.043 48.088 371.579 43.744 371.579 38.224C371.579 34.528 372.323 31.312 373.811 28.576C375.347 25.84 377.363 23.704 379.859 22.168C382.403 20.632 385.163 19.864 388.139 19.864C390.635 19.864 392.891 20.416 394.907 21.52C396.923 22.624 398.531 24.208 399.731 26.272C400.931 28.288 401.531 30.76 401.531 33.688C401.531 34.504 401.483 35.272 401.387 35.992C401.291 36.664 401.171 37.24 401.027 37.72H378.059C378.155 42.136 379.259 45.496 381.371 47.8C383.483 50.104 386.267 51.256 389.723 51.256C392.027 51.256 393.947 50.8 395.483 49.888C397.019 48.928 398.435 47.704 399.731 46.216L401.459 47.584C400.115 50.128 398.291 52.168 395.987 53.704C393.683 55.192 390.899 55.936 387.635 55.936ZM407.346 55V52.408L412.53 51.472C412.578 49.648 412.602 47.68 412.602 45.568C412.65 43.408 412.674 41.512 412.674 39.88V36.424C412.674 34.456 412.65 32.824 412.602 31.528C412.602 30.232 412.554 28.864 412.458 27.424L406.77 26.776V24.256L416.85 19.864L417.93 20.584L418.722 29.08C419.922 26.2 421.458 23.944 423.33 22.312C425.25 20.68 427.17 19.864 429.09 19.864C430.194 19.864 431.226 20.104 432.186 20.584C433.146 21.064 433.842 21.712 434.274 22.528C434.274 26.032 432.858 27.784 430.026 27.784C429.21 27.784 428.442 27.64 427.722 27.352C427.002 27.016 426.306 26.56 425.634 25.984L424.77 25.192C423.33 26.248 422.13 27.544 421.17 29.08C420.21 30.616 419.418 32.416 418.794 34.48V39.88C418.794 41.464 418.794 43.312 418.794 45.424C418.842 47.536 418.89 49.504 418.938 51.328L424.842 52.408V55H407.346Z" fill="black"/>
<path d="M10.388 94.408C10.388 96.16 10.388 97.852 10.388 99.484C10.412 101.116 10.436 102.724 10.46 104.308H13.304C16.088 104.308 18.224 103.408 19.712 101.608C21.2 99.784 21.944 97.24 21.944 93.976C21.944 90.592 21.212 88.012 19.748 86.236C18.284 84.46 16.244 83.572 13.628 83.572H10.46C10.436 85.108 10.412 86.68 10.388 88.288C10.388 89.872 10.388 91.468 10.388 93.076V94.408ZM3.584 83.392V81.916H14.204C16.508 81.916 18.536 82.384 20.288 83.32C22.04 84.232 23.408 85.588 24.392 87.388C25.376 89.164 25.868 91.36 25.868 93.976C25.868 96.568 25.328 98.764 24.248 100.564C23.168 102.34 21.692 103.696 19.82 104.632C17.972 105.544 15.872 106 13.52 106H3.584V104.524L6.896 104.128C6.944 102.592 6.968 101.032 6.968 99.448C6.968 97.84 6.968 96.16 6.968 94.408V93.076C6.968 91.516 6.968 89.968 6.968 88.432C6.968 86.872 6.944 85.324 6.896 83.788L3.584 83.392ZM42.1746 106.36C41.3106 106.36 40.5906 106.108 40.0146 105.604C39.4386 105.1 39.0786 104.428 38.9346 103.588C37.9506 104.548 37.0866 105.268 36.3426 105.748C35.5986 106.228 34.6986 106.468 33.6426 106.468C32.3226 106.468 31.1826 106.096 30.2226 105.352C29.2866 104.584 28.8186 103.456 28.8186 101.968C28.8186 101.272 28.9746 100.624 29.2866 100.024C29.6226 99.424 30.2226 98.836 31.0866 98.26C31.9506 97.684 33.1866 97.108 34.7946 96.532C35.3466 96.34 35.9826 96.136 36.7026 95.92C37.4226 95.704 38.1426 95.512 38.8626 95.344V94.444C38.8626 92.692 38.5986 91.528 38.0706 90.952C37.5426 90.376 36.6786 90.088 35.4786 90.088C35.2146 90.088 34.9146 90.1 34.5786 90.124C34.2666 90.148 33.9186 90.208 33.5346 90.304L32.8506 92.644C32.5146 93.796 31.8906 94.372 30.9786 94.372C29.9706 94.372 29.4066 93.88 29.2866 92.896C29.6226 91.528 30.4146 90.448 31.6626 89.656C32.9346 88.84 34.4826 88.432 36.3066 88.432C38.2026 88.432 39.6066 88.912 40.5186 89.872C41.4306 90.808 41.8866 92.416 41.8866 94.696V102.364C41.8866 103.132 42.0066 103.684 42.2466 104.02C42.4866 104.332 42.7986 104.488 43.1826 104.488C43.4946 104.488 43.7586 104.416 43.9746 104.272C44.1906 104.128 44.3946 103.936 44.5866 103.696L45.3066 104.488C44.8746 105.184 44.3946 105.676 43.8666 105.964C43.3626 106.228 42.7986 106.36 42.1746 106.36ZM32.0226 101.428C32.0226 102.388 32.2986 103.072 32.8506 103.48C33.4026 103.888 34.0866 104.092 34.9026 104.092C35.2626 104.092 35.5986 104.044 35.9106 103.948C36.2466 103.852 36.6426 103.672 37.0986 103.408C37.5546 103.12 38.1426 102.712 38.8626 102.184V96.676C38.2386 96.844 37.6266 97.036 37.0266 97.252C36.4266 97.444 35.9346 97.612 35.5506 97.756C34.5186 98.164 33.7506 98.584 33.2466 99.016C32.7426 99.448 32.4066 99.868 32.2386 100.276C32.0946 100.684 32.0226 101.068 32.0226 101.428ZM52.355 106.468C51.347 106.468 50.423 106.348 49.583 106.108C48.743 105.892 47.879 105.556 46.991 105.1L46.847 101.14H48.827L49.511 104.272C50.351 104.656 51.323 104.848 52.427 104.848C53.795 104.848 54.803 104.596 55.451 104.092C56.123 103.588 56.459 102.928 56.459 102.112C56.459 101.344 56.183 100.732 55.631 100.276C55.079 99.796 54.239 99.364 53.111 98.98L51.455 98.368C50.135 97.888 49.079 97.264 48.287 96.496C47.495 95.728 47.099 94.732 47.099 93.508C47.099 92.62 47.339 91.792 47.819 91.024C48.299 90.256 49.007 89.632 49.943 89.152C50.879 88.672 52.019 88.432 53.363 88.432C54.347 88.432 55.235 88.564 56.027 88.828C56.843 89.068 57.635 89.428 58.403 89.908L58.259 93.58H56.387L55.811 90.7C54.995 90.292 54.167 90.088 53.327 90.088C52.223 90.088 51.383 90.316 50.807 90.772C50.255 91.204 49.979 91.792 49.979 92.536C49.979 93.328 50.219 93.928 50.699 94.336C51.203 94.744 52.067 95.176 53.291 95.632L54.407 96.028C56.207 96.7 57.479 97.468 58.223 98.332C58.991 99.196 59.375 100.192 59.375 101.32C59.375 102.232 59.111 103.084 58.583 103.876C58.055 104.644 57.275 105.268 56.243 105.748C55.211 106.228 53.915 106.468 52.355 106.468ZM79.5707 85.768L75.9347 96.496H83.1707L79.5707 85.768ZM68.6267 106V104.524L71.6507 104.056L79.3187 81.736H81.5867L89.2547 104.2L91.9547 104.524V106H82.1627V104.524L85.6907 104.092L83.7107 98.188H75.3587L73.3427 104.056L76.8707 104.524V106H68.6267ZM99.2475 106.468C97.7835 106.468 96.6315 105.988 95.7915 105.028C94.9515 104.044 94.5435 102.364 94.5675 99.988L94.6755 91.024L92.1195 90.484V89.188L97.4115 88.684L97.7715 89.044L97.5915 94.084V99.664C97.5915 101.224 97.8315 102.328 98.3115 102.976C98.7915 103.6 99.5115 103.912 100.472 103.912C102.152 103.912 103.832 103.132 105.512 101.572L105.62 90.988L103.064 90.484V89.188L108.284 88.684L108.644 89.044L108.536 94.084V104.2L110.984 104.704V106L105.98 106.288L105.62 103.084C104.66 104.26 103.628 105.124 102.524 105.676C101.444 106.204 100.352 106.468 99.2475 106.468ZM113.144 106V104.704L115.988 104.2C116.012 103.24 116.024 102.28 116.024 101.32C116.048 100.36 116.06 99.4 116.06 98.44V90.808H113.072V89.224L116.132 88.828C116.3 86.908 116.564 85.36 116.924 84.184C117.308 82.984 117.944 81.94 118.832 81.052C119.6 80.284 120.404 79.756 121.244 79.468C122.084 79.18 122.912 79.036 123.728 79.036C124.568 79.036 125.312 79.192 125.96 79.504C126.608 79.792 127.016 80.284 127.184 80.98C127.16 81.436 126.956 81.82 126.572 82.132C126.188 82.444 125.66 82.6 124.988 82.6C124.124 82.6 123.26 82.24 122.396 81.52L121.388 80.728C121.292 80.8 121.196 80.872 121.1 80.944C121.028 81.016 120.956 81.088 120.884 81.16C120.26 81.784 119.78 82.732 119.444 84.004C119.132 85.252 119 86.884 119.048 88.9H124.016V90.808H119.12V98.44C119.12 99.4 119.12 100.36 119.12 101.32C119.144 102.256 119.168 103.204 119.192 104.164L122.432 104.704V106H113.144ZM131.414 106.468C130.406 106.468 129.482 106.348 128.642 106.108C127.802 105.892 126.938 105.556 126.05 105.1L125.906 101.14H127.886L128.57 104.272C129.41 104.656 130.382 104.848 131.486 104.848C132.854 104.848 133.862 104.596 134.51 104.092C135.182 103.588 135.518 102.928 135.518 102.112C135.518 101.344 135.242 100.732 134.69 100.276C134.138 99.796 133.298 99.364 132.17 98.98L130.514 98.368C129.194 97.888 128.138 97.264 127.346 96.496C126.554 95.728 126.158 94.732 126.158 93.508C126.158 92.62 126.398 91.792 126.878 91.024C127.358 90.256 128.066 89.632 129.002 89.152C129.938 88.672 131.078 88.432 132.422 88.432C133.406 88.432 134.294 88.564 135.086 88.828C135.902 89.068 136.694 89.428 137.462 89.908L137.318 93.58H135.446L134.87 90.7C134.054 90.292 133.226 90.088 132.386 90.088C131.282 90.088 130.442 90.316 129.866 90.772C129.314 91.204 129.038 91.792 129.038 92.536C129.038 93.328 129.278 93.928 129.758 94.336C130.262 94.744 131.126 95.176 132.35 95.632L133.466 96.028C135.266 96.7 136.538 97.468 137.282 98.332C138.05 99.196 138.434 100.192 138.434 101.32C138.434 102.232 138.17 103.084 137.642 103.876C137.114 104.644 136.334 105.268 135.302 105.748C134.27 106.228 132.974 106.468 131.414 106.468ZM154.44 106.36C153.576 106.36 152.856 106.108 152.28 105.604C151.704 105.1 151.344 104.428 151.2 103.588C150.216 104.548 149.352 105.268 148.608 105.748C147.864 106.228 146.964 106.468 145.908 106.468C144.588 106.468 143.448 106.096 142.488 105.352C141.552 104.584 141.084 103.456 141.084 101.968C141.084 101.272 141.24 100.624 141.552 100.024C141.888 99.424 142.488 98.836 143.352 98.26C144.216 97.684 145.452 97.108 147.06 96.532C147.612 96.34 148.248 96.136 148.968 95.92C149.688 95.704 150.408 95.512 151.128 95.344V94.444C151.128 92.692 150.864 91.528 150.336 90.952C149.808 90.376 148.944 90.088 147.744 90.088C147.48 90.088 147.18 90.1 146.844 90.124C146.532 90.148 146.184 90.208 145.8 90.304L145.116 92.644C144.78 93.796 144.156 94.372 143.244 94.372C142.236 94.372 141.672 93.88 141.552 92.896C141.888 91.528 142.68 90.448 143.928 89.656C145.2 88.84 146.748 88.432 148.572 88.432C150.468 88.432 151.872 88.912 152.784 89.872C153.696 90.808 154.152 92.416 154.152 94.696V102.364C154.152 103.132 154.272 103.684 154.512 104.02C154.752 104.332 155.064 104.488 155.448 104.488C155.76 104.488 156.024 104.416 156.24 104.272C156.456 104.128 156.66 103.936 156.852 103.696L157.572 104.488C157.14 105.184 156.66 105.676 156.132 105.964C155.628 106.228 155.064 106.36 154.44 106.36ZM144.288 101.428C144.288 102.388 144.564 103.072 145.116 103.48C145.668 103.888 146.352 104.092 147.168 104.092C147.528 104.092 147.864 104.044 148.176 103.948C148.512 103.852 148.908 103.672 149.364 103.408C149.82 103.12 150.408 102.712 151.128 102.184V96.676C150.504 96.844 149.892 97.036 149.292 97.252C148.692 97.444 148.2 97.612 147.816 97.756C146.784 98.164 146.016 98.584 145.512 99.016C145.008 99.448 144.672 99.868 144.504 100.276C144.36 100.684 144.288 101.068 144.288 101.428ZM165.448 106.468C163.984 106.468 162.832 105.988 161.992 105.028C161.152 104.044 160.744 102.364 160.768 99.988L160.876 91.024L158.32 90.484V89.188L163.612 88.684L163.972 89.044L163.792 94.084V99.664C163.792 101.224 164.032 102.328 164.512 102.976C164.992 103.6 165.712 103.912 166.672 103.912C168.352 103.912 170.032 103.132 171.712 101.572L171.82 90.988L169.264 90.484V89.188L174.484 88.684L174.844 89.044L174.736 94.084V104.2L177.184 104.704V106L172.18 106.288L171.82 103.084C170.86 104.26 169.828 105.124 168.724 105.676C167.644 106.204 166.552 106.468 165.448 106.468ZM186.264 98.8C187.416 98.8 188.316 98.368 188.964 97.504C189.612 96.64 189.936 95.548 189.936 94.228C189.936 92.956 189.624 91.924 189 91.132C188.4 90.316 187.536 89.908 186.408 89.908C185.28 89.908 184.392 90.328 183.744 91.168C183.096 91.984 182.772 93.052 182.772 94.372C182.772 95.692 183.072 96.76 183.672 97.576C184.296 98.392 185.16 98.8 186.264 98.8ZM186.336 100.24C185.4 100.24 184.512 100.108 183.672 99.844C183.072 100.612 182.772 101.38 182.772 102.148C182.772 102.628 182.904 103.012 183.168 103.3C183.456 103.588 184.02 103.732 184.86 103.732H189.576C191.568 103.732 193.032 104.14 193.968 104.956C194.904 105.772 195.372 106.912 195.372 108.376C195.372 109.408 195.036 110.404 194.364 111.364C193.716 112.324 192.732 113.104 191.412 113.704C190.092 114.304 188.448 114.604 186.48 114.604C183.864 114.604 181.968 114.196 180.792 113.38C179.616 112.564 179.028 111.52 179.028 110.248C179.028 109.48 179.28 108.76 179.784 108.088C180.312 107.44 181.236 106.792 182.556 106.144C180.972 105.712 180.18 104.8 180.18 103.408C180.18 102.832 180.36 102.232 180.72 101.608C181.104 100.984 181.74 100.252 182.628 99.412C181.764 98.932 181.08 98.272 180.576 97.432C180.096 96.592 179.856 95.56 179.856 94.336C179.856 92.44 180.468 90.988 181.692 89.98C182.94 88.948 184.5 88.432 186.372 88.432C188.268 88.432 189.792 88.9 190.944 89.836L195.012 88.432L195.552 88.792V91.06H192.024C192.576 91.948 192.852 93.04 192.852 94.336C192.852 96.232 192.228 97.696 190.98 98.728C189.756 99.736 188.208 100.24 186.336 100.24ZM181.98 109.672C181.98 110.848 182.4 111.688 183.24 112.192C184.08 112.696 185.208 112.948 186.624 112.948C188.592 112.948 190.092 112.588 191.124 111.868C192.156 111.172 192.672 110.32 192.672 109.312C192.672 108.52 192.396 107.848 191.844 107.296C191.292 106.768 190.368 106.504 189.072 106.504H184.86C184.62 106.504 184.368 106.492 184.104 106.468C183.864 106.468 183.624 106.456 183.384 106.432C182.88 106.96 182.52 107.476 182.304 107.98C182.088 108.508 181.98 109.072 181.98 109.672ZM216.737 90.304V88.9H223.325V90.304L221.381 90.772L216.125 106.216H214.793L210.113 93.436L205.361 106.216H204.029L198.233 90.664L196.181 90.304V88.9H204.389V90.304L201.581 90.736L205.289 101.788L209.321 90.736L206.657 90.304V88.9H214.613V90.304L211.949 90.772L216.053 101.752L219.401 90.808L216.737 90.304ZM231.341 106.468C229.877 106.468 228.725 105.988 227.885 105.028C227.045 104.044 226.637 102.364 226.661 99.988L226.769 91.024L224.213 90.484V89.188L229.505 88.684L229.865 89.044L229.685 94.084V99.664C229.685 101.224 229.925 102.328 230.405 102.976C230.885 103.6 231.605 103.912 232.565 103.912C234.245 103.912 235.925 103.132 237.605 101.572L237.713 90.988L235.157 90.484V89.188L240.377 88.684L240.737 89.044L240.629 94.084V104.2L243.077 104.704V106L238.073 106.288L237.713 103.084C236.753 104.26 235.721 105.124 234.617 105.676C233.537 106.204 232.445 106.468 231.341 106.468ZM245.381 106V104.704L248.045 104.2C248.069 103.288 248.081 102.304 248.081 101.248C248.105 100.192 248.117 99.256 248.117 98.44V96.712C248.117 95.728 248.105 94.912 248.081 94.264C248.081 93.616 248.057 92.932 248.009 92.212L245.165 91.888V90.628L250.205 88.432L250.745 88.792L251.033 91.672C251.921 90.712 252.941 89.932 254.093 89.332C255.245 88.732 256.373 88.432 257.477 88.432C259.037 88.432 260.189 88.96 260.933 90.016C261.701 91.048 262.085 92.74 262.085 95.092V98.44C262.085 99.256 262.085 100.192 262.085 101.248C262.109 102.304 262.133 103.288 262.157 104.2L264.677 104.704V106H256.325V104.704L258.989 104.2C259.013 103.312 259.025 102.34 259.025 101.284C259.049 100.204 259.061 99.256 259.061 98.44V95.38C259.061 93.724 258.821 92.584 258.341 91.96C257.885 91.336 257.129 91.024 256.073 91.024C255.257 91.024 254.465 91.192 253.697 91.528C252.929 91.864 252.089 92.416 251.177 93.184V98.44C251.177 99.232 251.177 100.168 251.177 101.248C251.201 102.304 251.225 103.288 251.249 104.2L253.733 104.704V106H245.381ZM270.273 97.54C270.273 99.892 270.741 101.632 271.677 102.76C272.637 103.864 273.837 104.416 275.277 104.416C276.069 104.416 276.765 104.26 277.365 103.948C277.989 103.612 278.637 103.072 279.309 102.328V92.356C278.493 91.636 277.761 91.144 277.113 90.88C276.465 90.616 275.841 90.484 275.241 90.484C274.353 90.484 273.525 90.736 272.757 91.24C272.013 91.72 271.413 92.488 270.957 93.544C270.501 94.576 270.273 95.908 270.273 97.54ZM279.669 106.36L279.417 103.876C278.793 104.692 278.073 105.328 277.257 105.784C276.465 106.24 275.505 106.468 274.377 106.468C272.913 106.468 271.629 106.096 270.525 105.352C269.421 104.608 268.557 103.576 267.933 102.256C267.333 100.912 267.033 99.364 267.033 97.612C267.033 95.764 267.369 94.156 268.041 92.788C268.713 91.42 269.625 90.352 270.777 89.584C271.929 88.816 273.237 88.432 274.701 88.432C275.541 88.432 276.345 88.6 277.113 88.936C277.905 89.272 278.673 89.884 279.417 90.772V82.636L276.357 82.276V81.016L281.973 79.396L282.477 79.684L282.333 84.796V104.272L285.249 104.704V106L279.669 106.36ZM295.163 90.088C294.491 90.088 293.807 90.28 293.111 90.664C292.439 91.048 291.851 91.66 291.347 92.5C290.867 93.34 290.555 94.456 290.411 95.848H296.963C297.827 95.848 298.391 95.668 298.655 95.308C298.943 94.948 299.087 94.504 299.087 93.976C299.087 93.28 298.907 92.644 298.547 92.068C298.211 91.468 297.743 90.988 297.143 90.628C296.567 90.268 295.907 90.088 295.163 90.088ZM295.127 106.468C292.703 106.468 290.759 105.688 289.295 104.128C287.831 102.544 287.099 100.372 287.099 97.612C287.099 95.764 287.471 94.156 288.215 92.788C288.983 91.42 289.991 90.352 291.239 89.584C292.511 88.816 293.891 88.432 295.379 88.432C296.627 88.432 297.755 88.708 298.763 89.26C299.771 89.812 300.575 90.604 301.175 91.636C301.775 92.644 302.075 93.88 302.075 95.344C302.075 95.752 302.051 96.136 302.003 96.496C301.955 96.832 301.895 97.12 301.823 97.36H290.339C290.387 99.568 290.939 101.248 291.995 102.4C293.051 103.552 294.443 104.128 296.171 104.128C297.323 104.128 298.283 103.9 299.051 103.444C299.819 102.964 300.527 102.352 301.175 101.608L302.039 102.292C301.367 103.564 300.455 104.584 299.303 105.352C298.151 106.096 296.759 106.468 295.127 106.468ZM304.982 106V104.704L307.574 104.236C307.598 103.324 307.61 102.34 307.61 101.284C307.634 100.204 307.646 99.256 307.646 98.44V96.712C307.646 95.728 307.634 94.912 307.61 94.264C307.61 93.616 307.586 92.932 307.538 92.212L304.694 91.888V90.628L309.734 88.432L310.274 88.792L310.67 93.04C311.27 91.6 312.038 90.472 312.974 89.656C313.934 88.84 314.894 88.432 315.854 88.432C316.406 88.432 316.922 88.552 317.402 88.792C317.882 89.032 318.23 89.356 318.446 89.764C318.446 91.516 317.738 92.392 316.322 92.392C315.914 92.392 315.53 92.32 315.17 92.176C314.81 92.008 314.462 91.78 314.126 91.492L313.694 91.096C312.974 91.624 312.374 92.272 311.894 93.04C311.414 93.808 311.018 94.708 310.706 95.74V98.44C310.706 99.232 310.706 100.156 310.706 101.212C310.73 102.268 310.754 103.252 310.778 104.164L313.73 104.704V106H304.982Z" fill="black"/>
</svg>
