<svg width="543" height="267" viewBox="0 0 543 267" fill="none" xmlns="http://www.w3.org/2000/svg">
<path d="M124.92 112.08C122.232 112.08 119.64 111.72 117.144 111C114.648 110.232 112.56 109.32 110.88 108.264L111.312 98.184H115.776L117.216 106.68C118.32 107.304 119.448 107.76 120.6 108.048C121.8 108.336 123.168 108.48 124.704 108.48C128.112 108.48 130.824 107.736 132.84 106.248C134.856 104.712 135.864 102.552 135.864 99.768C135.864 97.464 135.144 95.688 133.704 94.44C132.312 93.144 130.08 91.896 127.008 90.696L124.2 89.544C120.504 88.104 117.504 86.256 115.2 84C112.944 81.696 111.816 78.72 111.816 75.072C111.816 72.288 112.512 69.912 113.904 67.944C115.344 65.976 117.288 64.464 119.736 63.408C122.184 62.304 124.944 61.752 128.016 61.752C130.416 61.752 132.6 62.088 134.568 62.76C136.536 63.432 138.288 64.344 139.824 65.496L139.392 74.928H135L133.488 66.792C131.712 65.832 129.744 65.352 127.584 65.352C124.848 65.352 122.544 66.048 120.672 67.44C118.8 68.784 117.864 70.8 117.864 73.488C117.864 75.696 118.56 77.52 119.952 78.96C121.392 80.4 123.408 81.624 126 82.632L128.88 83.712C133.584 85.536 136.944 87.6 138.96 89.904C140.976 92.16 141.984 94.992 141.984 98.4C141.984 101.232 141.24 103.68 139.752 105.744C138.312 107.76 136.32 109.32 133.776 110.424C131.232 111.528 128.28 112.08 124.92 112.08ZM165.541 79.392V76.8H179.582V79.392L175.694 80.184L164.102 110.784C161.701 117.168 159.373 121.776 157.117 124.608C154.909 127.488 152.317 128.928 149.341 128.928C147.565 128.928 146.005 128.472 144.661 127.56C143.365 126.696 142.717 125.568 142.717 124.176C142.957 123.12 143.533 122.328 144.445 121.8C145.405 121.272 146.437 121.008 147.541 121.008C148.501 121.008 149.389 121.2 150.205 121.584C151.021 122.016 151.909 122.736 152.869 123.744L153.229 124.104C154.765 122.808 156.061 121.224 157.117 119.352C158.173 117.528 159.038 115.656 159.709 113.736L159.997 112.872L146.965 79.968L143.005 79.392V76.8H160.286V79.464L153.949 80.184L162.95 104.736L171.805 80.256L165.541 79.392ZM179.235 111V108.408L184.995 107.4C185.043 105.432 185.067 103.512 185.067 101.64C185.115 99.72 185.139 97.8 185.139 95.88V64.272L179.235 63.552V61.032L190.467 57.792L191.475 58.368L191.187 68.592V95.88C191.187 97.8 191.187 99.72 191.187 101.64C191.235 103.56 191.283 105.48 191.331 107.4L197.091 108.408V111H179.235ZM212.92 111.936C210.424 111.936 208.432 111.264 206.944 109.92C205.456 108.576 204.712 106.512 204.712 103.728C204.712 102.816 204.712 101.928 204.712 101.064C204.76 100.152 204.784 99 204.784 97.608V80.616H198.808V77.448L205.216 76.656L207.088 67.008H211.408L210.976 76.8H220.696V80.616H210.904V102.936C210.904 104.76 211.264 106.104 211.984 106.968C212.704 107.784 213.664 108.192 214.864 108.192C215.68 108.192 216.448 108.024 217.168 107.688C217.936 107.352 218.776 106.872 219.688 106.248L221.416 108.12C219.448 110.664 216.616 111.936 212.92 111.936ZM240.222 79.176C238.878 79.176 237.51 79.56 236.118 80.328C234.774 81.096 233.598 82.32 232.59 84C231.63 85.68 231.006 87.912 230.718 90.696H243.822C245.55 90.696 246.678 90.336 247.206 89.616C247.782 88.896 248.07 88.008 248.07 86.952C248.07 85.56 247.71 84.288 246.99 83.136C246.318 81.936 245.382 80.976 244.182 80.256C243.03 79.536 241.71 79.176 240.222 79.176ZM240.15 111.936C235.302 111.936 231.414 110.376 228.486 107.256C225.558 104.088 224.094 99.744 224.094 94.224C224.094 90.528 224.838 87.312 226.326 84.576C227.862 81.84 229.878 79.704 232.374 78.168C234.918 76.632 237.678 75.864 240.654 75.864C243.15 75.864 245.406 76.416 247.422 77.52C249.438 78.624 251.046 80.208 252.246 82.272C253.446 84.288 254.046 86.76 254.046 89.688C254.046 90.504 253.998 91.272 253.902 91.992C253.806 92.664 253.686 93.24 253.542 93.72H230.574C230.67 98.136 231.774 101.496 233.886 103.8C235.998 106.104 238.782 107.256 242.238 107.256C244.542 107.256 246.462 106.8 247.998 105.888C249.534 104.928 250.95 103.704 252.246 102.216L253.974 103.584C252.63 106.128 250.806 108.168 248.502 109.704C246.198 111.192 243.414 111.936 240.15 111.936ZM259.861 111V108.408L265.045 107.472C265.093 105.648 265.117 103.68 265.117 101.568C265.165 99.408 265.189 97.512 265.189 95.88V92.424C265.189 90.456 265.165 88.824 265.117 87.528C265.117 86.232 265.069 84.864 264.973 83.424L259.285 82.776V80.256L269.365 75.864L270.445 76.584L271.237 85.08C272.437 82.2 273.973 79.944 275.845 78.312C277.765 76.68 279.685 75.864 281.605 75.864C282.709 75.864 283.741 76.104 284.701 76.584C285.661 77.064 286.357 77.712 286.789 78.528C286.789 82.032 285.373 83.784 282.541 83.784C281.725 83.784 280.957 83.64 280.237 83.352C279.517 83.016 278.821 82.56 278.149 81.984L277.285 81.192C275.845 82.248 274.645 83.544 273.685 85.08C272.725 86.616 271.933 88.416 271.309 90.48V95.88C271.309 97.464 271.309 99.312 271.309 101.424C271.357 103.536 271.405 105.504 271.453 107.328L277.357 108.408V111H259.861ZM128.736 156.744H124.776C124.776 160.536 124.776 164.04 124.776 167.256C124.824 170.424 124.872 173.544 124.92 176.616H129.312C133.92 176.616 137.352 175.776 139.608 174.096C141.864 172.416 142.992 169.992 142.992 166.824C142.992 163.464 141.864 160.944 139.608 159.264C137.352 157.584 133.728 156.744 128.736 156.744ZM129.888 135.144H124.92C124.872 138.216 124.824 141.336 124.776 144.504C124.776 147.624 124.776 150.6 124.776 153.432H128.52C132.888 153.432 136.056 152.688 138.024 151.2C139.992 149.712 140.976 147.336 140.976 144.072C140.976 140.808 140.04 138.504 138.168 137.16C136.344 135.816 133.584 135.144 129.888 135.144ZM111.168 134.784V131.832H132.048C137.04 131.832 140.904 132.936 143.64 135.144C146.376 137.352 147.744 140.16 147.744 143.568C147.744 146.112 146.88 148.44 145.152 150.552C143.424 152.664 140.568 154.128 136.584 154.944C141.384 155.616 144.84 157.032 146.952 159.192C149.112 161.352 150.192 163.896 150.192 166.824C150.192 168.984 149.544 171.072 148.248 173.088C147 175.104 144.96 176.76 142.128 178.056C139.296 179.352 135.576 180 130.968 180H111.168V177.048L117.792 176.256C117.888 173.232 117.936 170.16 117.936 167.04C117.936 163.92 117.936 160.8 117.936 157.68V154.152C117.936 151.032 117.936 147.936 117.936 144.864C117.936 141.744 117.888 138.648 117.792 135.576L111.168 134.784ZM182.513 180.72C180.785 180.72 179.345 180.216 178.193 179.208C177.041 178.2 176.321 176.856 176.033 175.176C174.065 177.096 172.337 178.536 170.849 179.496C169.361 180.456 167.561 180.936 165.449 180.936C162.809 180.936 160.529 180.192 158.609 178.704C156.737 177.168 155.801 174.912 155.801 171.936C155.801 170.544 156.113 169.248 156.737 168.048C157.409 166.848 158.609 165.672 160.337 164.52C162.065 163.368 164.537 162.216 167.753 161.064C168.857 160.68 170.129 160.272 171.569 159.84C173.009 159.408 174.449 159.024 175.889 158.688V156.888C175.889 153.384 175.361 151.056 174.305 149.904C173.249 148.752 171.521 148.176 169.121 148.176C168.593 148.176 167.993 148.2 167.321 148.248C166.697 148.296 166.001 148.416 165.233 148.608L163.865 153.288C163.193 155.592 161.945 156.744 160.121 156.744C158.105 156.744 156.977 155.76 156.737 153.792C157.409 151.056 158.993 148.896 161.489 147.312C164.033 145.68 167.129 144.864 170.777 144.864C174.569 144.864 177.377 145.824 179.201 147.744C181.025 149.616 181.937 152.832 181.937 157.392V172.728C181.937 174.264 182.177 175.368 182.657 176.04C183.137 176.664 183.761 176.976 184.529 176.976C185.153 176.976 185.681 176.832 186.113 176.544C186.545 176.256 186.953 175.872 187.337 175.392L188.777 176.976C187.913 178.368 186.953 179.352 185.897 179.928C184.889 180.456 183.761 180.72 182.513 180.72ZM162.209 170.856C162.209 172.776 162.761 174.144 163.865 174.96C164.969 175.776 166.337 176.184 167.969 176.184C168.689 176.184 169.361 176.088 169.985 175.896C170.657 175.704 171.449 175.344 172.361 174.816C173.273 174.24 174.449 173.424 175.889 172.368V161.352C174.641 161.688 173.417 162.072 172.217 162.504C171.017 162.888 170.033 163.224 169.265 163.512C167.201 164.328 165.665 165.168 164.657 166.032C163.649 166.896 162.977 167.736 162.641 168.552C162.353 169.368 162.209 170.136 162.209 170.856ZM191.002 180V177.408L196.33 176.4C196.378 174.576 196.402 172.608 196.402 170.496C196.45 168.384 196.474 166.512 196.474 164.88V161.424C196.474 159.456 196.45 157.824 196.402 156.528C196.402 155.232 196.354 153.864 196.258 152.424L190.57 151.776V149.256L200.65 144.864L201.73 145.584L202.306 151.344C204.082 149.424 206.122 147.864 208.426 146.664C210.73 145.464 212.986 144.864 215.194 144.864C218.314 144.864 220.618 145.92 222.106 148.032C223.642 150.096 224.41 153.48 224.41 158.184V164.88C224.41 166.512 224.41 168.384 224.41 170.496C224.458 172.608 224.506 174.576 224.555 176.4L229.595 177.408V180H212.89V177.408L218.218 176.4C218.266 174.624 218.29 172.68 218.29 170.568C218.338 168.408 218.362 166.512 218.362 164.88V158.76C218.362 155.448 217.882 153.168 216.922 151.92C216.01 150.672 214.498 150.048 212.386 150.048C210.754 150.048 209.17 150.384 207.634 151.056C206.098 151.728 204.418 152.832 202.594 154.368V164.88C202.594 166.464 202.594 168.336 202.594 170.496C202.642 172.608 202.69 174.576 202.738 176.4L207.706 177.408V180H191.002ZM232.867 180V177.408L238.627 176.4C238.675 174.48 238.699 172.56 238.699 170.64C238.747 168.672 238.771 166.752 238.771 164.88V133.272L232.867 132.552V130.032L244.099 126.792L245.107 127.368L244.819 137.592V162.72L257.131 149.904L251.803 148.608V145.8H268.579V148.608L261.811 149.616L253.891 157.752L265.699 176.544L270.451 177.408V180H260.659L249.571 162.144L244.819 167.04C244.819 168.576 244.819 170.136 244.819 171.72C244.867 173.304 244.915 174.864 244.963 176.4L250.723 177.408V180H232.867ZM278.035 163.152C278.035 167.856 278.971 171.312 280.843 173.52C282.763 175.728 285.163 176.832 288.043 176.832C289.627 176.832 291.067 176.496 292.363 175.824C293.659 175.104 295.003 173.928 296.395 172.296V152.928C294.667 151.392 293.131 150.36 291.787 149.832C290.491 149.256 289.219 148.968 287.971 148.968C286.195 148.968 284.539 149.472 283.003 150.48C281.515 151.488 280.315 153.048 279.403 155.16C278.491 157.224 278.035 159.888 278.035 163.152ZM286.243 180.936C283.315 180.936 280.747 180.192 278.539 178.704C276.331 177.216 274.603 175.152 273.355 172.512C272.155 169.872 271.555 166.8 271.555 163.296C271.555 159.6 272.203 156.384 273.499 153.648C274.843 150.864 276.667 148.704 278.971 147.168C281.275 145.632 283.843 144.864 286.675 144.864C288.355 144.864 290.011 145.224 291.643 145.944C293.323 146.664 294.979 147.96 296.611 149.832L301.507 144.864L302.659 145.584L302.443 155.304V181.944C302.443 183.864 302.443 185.808 302.443 187.776C302.491 189.744 302.539 191.712 302.587 193.68L308.347 194.688V197.208H289.843V194.688L296.467 193.608C296.515 191.64 296.539 189.672 296.539 187.704C296.587 185.784 296.611 183.864 296.611 181.944V175.32C295.219 177.24 293.659 178.656 291.931 179.568C290.251 180.48 288.355 180.936 286.243 180.936ZM323.729 180.936C320.801 180.936 318.497 179.976 316.817 178.056C315.137 176.088 314.321 172.728 314.369 167.976L314.585 150.048L309.473 148.968V146.376L320.057 145.368L320.777 146.088L320.417 156.168V167.328C320.417 170.448 320.897 172.656 321.857 173.952C322.817 175.2 324.257 175.824 326.177 175.824C329.537 175.824 332.897 174.264 336.257 171.144L336.473 149.976L331.361 148.968V146.376L341.801 145.368L342.521 146.088L342.305 156.168V176.4L347.201 177.408V180L337.193 180.576L336.473 174.168C334.553 176.52 332.489 178.248 330.281 179.352C328.121 180.408 325.937 180.936 323.729 180.936ZM351.45 180V177.408L356.85 176.4C356.898 174.576 356.922 172.608 356.922 170.496C356.97 168.336 356.994 166.464 356.994 164.88V161.496C356.994 159.528 356.97 157.896 356.922 156.6C356.922 155.256 356.874 153.864 356.778 152.424L351.018 151.776V149.256L362.106 144.864L363.186 145.584L362.97 155.376V164.88C362.97 166.464 362.97 168.336 362.97 170.496C363.018 172.608 363.066 174.576 363.114 176.4L368.154 177.408V180H351.45ZM359.946 136.944C358.602 136.944 357.45 136.512 356.49 135.648C355.578 134.784 355.122 133.68 355.122 132.336C355.122 130.944 355.578 129.84 356.49 129.024C357.45 128.16 358.602 127.728 359.946 127.728C361.29 127.728 362.418 128.16 363.33 129.024C364.29 129.84 364.77 130.944 364.77 132.336C364.77 133.68 364.29 134.784 363.33 135.648C362.418 136.512 361.29 136.944 359.946 136.944ZM384.055 180.936C382.039 180.936 380.191 180.696 378.511 180.216C376.831 179.784 375.103 179.112 373.327 178.2L373.039 170.28H376.999L378.367 176.544C380.047 177.312 381.991 177.696 384.199 177.696C386.935 177.696 388.951 177.192 390.247 176.184C391.591 175.176 392.263 173.856 392.263 172.224C392.263 170.688 391.711 169.464 390.607 168.552C389.503 167.592 387.823 166.728 385.567 165.96L382.255 164.736C379.615 163.776 377.503 162.528 375.919 160.992C374.335 159.456 373.543 157.464 373.543 155.016C373.543 153.24 374.023 151.584 374.983 150.048C375.943 148.512 377.359 147.264 379.231 146.304C381.103 145.344 383.383 144.864 386.071 144.864C388.039 144.864 389.815 145.128 391.399 145.656C393.031 146.136 394.615 146.856 396.151 147.816L395.863 155.16H392.119L390.967 149.4C389.335 148.584 387.679 148.176 385.999 148.176C383.791 148.176 382.111 148.632 380.959 149.544C379.855 150.408 379.303 151.584 379.303 153.072C379.303 154.656 379.783 155.856 380.743 156.672C381.751 157.488 383.479 158.352 385.927 159.264L388.159 160.056C391.759 161.4 394.303 162.936 395.791 164.664C397.327 166.392 398.095 168.384 398.095 170.64C398.095 172.464 397.567 174.168 396.511 175.752C395.455 177.288 393.895 178.536 391.831 179.496C389.767 180.456 387.175 180.936 384.055 180.936ZM419.378 180.936C414.434 180.936 410.498 179.328 407.57 176.112C404.642 172.896 403.178 168.528 403.178 163.008C403.178 159.216 403.946 155.976 405.482 153.288C407.066 150.552 409.13 148.464 411.674 147.024C414.218 145.584 416.93 144.864 419.81 144.864C421.97 144.864 423.962 145.272 425.786 146.088C427.61 146.904 429.122 148.032 430.322 149.472C431.522 150.864 432.266 152.448 432.554 154.224C432.218 156.048 431.114 156.96 429.242 156.96C428.042 156.96 427.13 156.648 426.506 156.024C425.93 155.352 425.522 154.512 425.282 153.504L423.986 148.752C423.314 148.512 422.642 148.368 421.97 148.32C421.346 148.224 420.722 148.176 420.098 148.176C417.026 148.176 414.482 149.376 412.466 151.776C410.498 154.176 409.514 157.68 409.514 162.288C409.514 166.8 410.594 170.256 412.754 172.656C414.914 175.056 417.674 176.256 421.034 176.256C423.098 176.256 424.994 175.8 426.722 174.888C428.45 173.928 429.866 172.56 430.97 170.784L432.77 171.72C431.762 174.696 430.13 176.976 427.874 178.56C425.618 180.144 422.786 180.936 419.378 180.936ZM435.977 180V177.408L441.377 176.4C441.425 174.576 441.449 172.608 441.449 170.496C441.497 168.336 441.521 166.464 441.521 164.88V133.272L435.617 132.552V130.032L446.633 126.792L447.641 127.368L447.353 137.592V151.488C449.129 149.52 451.193 147.936 453.545 146.736C455.897 145.488 458.225 144.864 460.529 144.864C463.649 144.864 465.953 145.92 467.441 148.032C468.977 150.096 469.745 153.48 469.745 158.184V164.88C469.745 166.512 469.745 168.384 469.745 170.496C469.793 172.608 469.841 174.576 469.889 176.4L474.929 177.408V180H458.225V177.408L463.481 176.472C463.529 174.648 463.553 172.68 463.553 170.568C463.601 168.408 463.625 166.512 463.625 164.88V158.76C463.625 155.448 463.169 153.168 462.257 151.92C461.345 150.672 459.833 150.048 457.721 150.048C455.945 150.048 454.265 150.408 452.681 151.128C451.097 151.848 449.393 153.048 447.569 154.728V164.88C447.569 166.464 447.569 168.336 447.569 170.496C447.617 172.608 447.665 174.576 447.713 176.4L452.681 177.408V180H435.977ZM495.707 148.176C494.363 148.176 492.995 148.56 491.603 149.328C490.259 150.096 489.083 151.32 488.075 153C487.115 154.68 486.491 156.912 486.203 159.696H499.307C501.035 159.696 502.163 159.336 502.691 158.616C503.267 157.896 503.555 157.008 503.555 155.952C503.555 154.56 503.195 153.288 502.475 152.136C501.803 150.936 500.867 149.976 499.667 149.256C498.515 148.536 497.195 148.176 495.707 148.176ZM495.635 180.936C490.787 180.936 486.899 179.376 483.971 176.256C481.043 173.088 479.579 168.744 479.579 163.224C479.579 159.528 480.323 156.312 481.811 153.576C483.347 150.84 485.363 148.704 487.859 147.168C490.403 145.632 493.163 144.864 496.139 144.864C498.635 144.864 500.891 145.416 502.907 146.52C504.923 147.624 506.531 149.208 507.731 151.272C508.931 153.288 509.531 155.76 509.531 158.688C509.531 159.504 509.483 160.272 509.387 160.992C509.291 161.664 509.171 162.24 509.027 162.72H486.059C486.155 167.136 487.259 170.496 489.371 172.8C491.483 175.104 494.267 176.256 497.723 176.256C500.027 176.256 501.947 175.8 503.483 174.888C505.019 173.928 506.435 172.704 507.731 171.216L509.459 172.584C508.115 175.128 506.291 177.168 503.987 178.704C501.683 180.192 498.899 180.936 495.635 180.936ZM515.346 180V177.408L520.53 176.472C520.578 174.648 520.602 172.68 520.602 170.568C520.65 168.408 520.674 166.512 520.674 164.88V161.424C520.674 159.456 520.65 157.824 520.602 156.528C520.602 155.232 520.554 153.864 520.458 152.424L514.77 151.776V149.256L524.85 144.864L525.93 145.584L526.722 154.08C527.922 151.2 529.458 148.944 531.33 147.312C533.25 145.68 535.17 144.864 537.09 144.864C538.194 144.864 539.226 145.104 540.186 145.584C541.146 146.064 541.842 146.712 542.274 147.528C542.274 151.032 540.858 152.784 538.026 152.784C537.21 152.784 536.442 152.64 535.722 152.352C535.002 152.016 534.306 151.56 533.634 150.984L532.77 150.192C531.33 151.248 530.13 152.544 529.17 154.08C528.21 155.616 527.418 157.416 526.794 159.48V164.88C526.794 166.464 526.794 168.312 526.794 170.424C526.842 172.536 526.89 174.504 526.938 176.328L532.842 177.408V180H515.346Z" fill="black"/>
<g clip-path="url(#clip0_9_32)">
<path fill-rule="evenodd" clip-rule="evenodd" d="M61.415 6.41555C59.3677 8.5683 56.7152 7.48338 54.3975 6.47535C51.7922 5.33918 49.7234 4.85652 46.9679 5.74923C44.2983 6.61631 41.6973 7.85926 38.8173 7.64996C36.7314 7.50047 33.7527 6.52234 32.4522 8.79895C32.9286 11.6821 31.8599 16.1243 34.1905 18.3923C37.0147 21.1388 41.0964 16.5599 44.3755 17.1835C46.5688 17.5979 47.5517 19.9086 48.5989 21.5958C49.7363 23.4325 51.1656 24.18 52.8867 25.3631C56.9513 28.1566 53.3545 31.8213 50.8136 34.2731C47.9766 37.0067 44.5601 38.1771 40.9076 39.4755C38.9332 40.176 36.8645 40.9064 35.1777 42.1836C33.1733 43.6999 33.478 46.2114 31.7397 47.8644C30.0143 49.5003 28.0572 50.346 26.8897 52.5287C25.5592 55.0103 24.8853 57.7867 24.2887 60.516C23.6235 63.5572 23.0741 66.6283 22.1813 69.6182C21.5461 71.7411 19.8336 74.2483 20.8379 76.5249C21.5504 78.1438 22.9496 79.3312 23.3917 81.0995C23.9754 83.4359 23.0827 85.8663 23.6106 88.207C24.1342 90.5434 26.5549 91.8931 26.9884 94.2594C27.4606 96.8308 26.8811 99.4833 26.6365 102.05C26.4004 104.523 26.4391 106.984 27.7782 109.158C28.7911 110.807 30.6367 112.494 30.7998 114.527C31.0101 117.128 29.6109 119.473 29.9886 122.155C30.3191 124.509 31.2075 126.777 32.3492 128.857C34.5253 132.804 38.0104 136.913 42.4699 138.318C45.0623 139.134 47.8006 139.048 50.3715 140.027C52.612 140.881 54.6979 142.077 56.8397 143.14C61.7712 145.592 66.7371 146.378 72.1752 145.276C77.6089 144.178 82.8109 141.987 88.4421 142.128C91.0259 146.305 84.0127 152.315 81.4417 155.181C78.6476 158.291 71.5271 158.086 70.8446 162.737C65.0418 162.267 63.1061 166.103 61.724 170.554C56.7667 173.505 53.6206 165.62 49.3586 164.582C46.792 163.959 43.9635 164.279 42.1651 161.981C40.7573 160.187 40.1779 157.851 39.4011 155.749C38.7401 153.964 37.9289 152.033 36.3537 150.85C33.7656 148.902 31.5209 150.76 28.7654 151.03C26.512 151.252 24.0183 151.119 23.0097 153.567C21.7908 156.514 23.3917 160.021 22.7779 163.117C19.9924 169.682 7.29651 166.406 6.28788 174.479C5.63119 179.699 7.4639 184.952 6.9789 190.198C6.71708 193.017 6.78146 195.02 8.03474 197.617C9.6228 200.906 8.38669 203.054 8.5455 206.437C8.66138 208.914 10.2366 211.042 10.7344 213.429C11.2924 216.094 10.5971 219.131 10.1636 221.771C9.19789 227.648 9.11205 232.061 13.7088 236.302C17.9022 240.172 14.6145 246.882 14.3054 251.675C13.9964 256.505 18.1812 262.477 15.6531 266.992C5.44663 264.565 7.23213 252.563 6.45097 244.529C5.11615 230.775 3.56671 217.043 2.36923 203.276C0.128781 177.52 -1.18888 151.397 1.55803 125.628C2.93578 112.729 6.13765 100.483 9.14209 87.9037C12.3568 74.4704 16.0523 61.2464 19.9409 47.9926C23.1599 37.0281 26.1386 26.2772 27.8511 14.9881C28.9971 7.38087 31.5337 -0.316042 40.6973 0.00857816C42.6587 0.0769192 44.3541 1.22163 46.1525 1.8666C48.2684 2.62262 50.5604 2.67388 52.7837 2.76785C55.6293 2.88745 60.7669 2.69951 61.415 6.41555ZM17.4944 146.788C13.0221 146.19 5.99602 144.418 4.15902 150.162C2.56237 155.164 4.6526 160.657 4.01738 165.774C9.14209 170.878 12.0607 161.084 18.1168 163.173C20.3443 161.691 19.6147 158.556 19.7048 156.317C19.8207 153.439 22.6921 150.513 21.7865 147.647C20.898 145.977 19.1383 147.006 17.4944 146.788Z" fill="black"/>
</g>
<path d="M118.388 219.408C118.388 221.16 118.388 222.852 118.388 224.484C118.412 226.116 118.436 227.724 118.46 229.308H121.304C124.088 229.308 126.224 228.408 127.712 226.608C129.2 224.784 129.944 222.24 129.944 218.976C129.944 215.592 129.212 213.012 127.748 211.236C126.284 209.46 124.244 208.572 121.628 208.572H118.46C118.436 210.108 118.412 211.68 118.388 213.288C118.388 214.872 118.388 216.468 118.388 218.076V219.408ZM111.584 208.392V206.916H122.204C124.508 206.916 126.536 207.384 128.288 208.32C130.04 209.232 131.408 210.588 132.392 212.388C133.376 214.164 133.868 216.36 133.868 218.976C133.868 221.568 133.328 223.764 132.248 225.564C131.168 227.34 129.692 228.696 127.82 229.632C125.972 230.544 123.872 231 121.52 231H111.584V229.524L114.896 229.128C114.944 227.592 114.968 226.032 114.968 224.448C114.968 222.84 114.968 221.16 114.968 219.408V218.076C114.968 216.516 114.968 214.968 114.968 213.432C114.968 211.872 114.944 210.324 114.896 208.788L111.584 208.392ZM150.175 231.36C149.311 231.36 148.591 231.108 148.015 230.604C147.439 230.1 147.079 229.428 146.935 228.588C145.951 229.548 145.087 230.268 144.343 230.748C143.599 231.228 142.699 231.468 141.643 231.468C140.323 231.468 139.183 231.096 138.223 230.352C137.287 229.584 136.819 228.456 136.819 226.968C136.819 226.272 136.975 225.624 137.287 225.024C137.623 224.424 138.223 223.836 139.087 223.26C139.951 222.684 141.187 222.108 142.795 221.532C143.347 221.34 143.983 221.136 144.703 220.92C145.423 220.704 146.143 220.512 146.863 220.344V219.444C146.863 217.692 146.599 216.528 146.071 215.952C145.543 215.376 144.679 215.088 143.479 215.088C143.215 215.088 142.915 215.1 142.579 215.124C142.267 215.148 141.919 215.208 141.535 215.304L140.851 217.644C140.515 218.796 139.891 219.372 138.979 219.372C137.971 219.372 137.407 218.88 137.287 217.896C137.623 216.528 138.415 215.448 139.663 214.656C140.935 213.84 142.483 213.432 144.307 213.432C146.203 213.432 147.607 213.912 148.519 214.872C149.431 215.808 149.887 217.416 149.887 219.696V227.364C149.887 228.132 150.007 228.684 150.247 229.02C150.487 229.332 150.799 229.488 151.183 229.488C151.495 229.488 151.759 229.416 151.975 229.272C152.191 229.128 152.395 228.936 152.587 228.696L153.307 229.488C152.875 230.184 152.395 230.676 151.867 230.964C151.363 231.228 150.799 231.36 150.175 231.36ZM140.023 226.428C140.023 227.388 140.299 228.072 140.851 228.48C141.403 228.888 142.087 229.092 142.903 229.092C143.263 229.092 143.599 229.044 143.911 228.948C144.247 228.852 144.643 228.672 145.099 228.408C145.555 228.12 146.143 227.712 146.863 227.184V221.676C146.239 221.844 145.627 222.036 145.027 222.252C144.427 222.444 143.935 222.612 143.551 222.756C142.519 223.164 141.751 223.584 141.247 224.016C140.743 224.448 140.407 224.868 140.239 225.276C140.095 225.684 140.023 226.068 140.023 226.428ZM160.355 231.468C159.347 231.468 158.423 231.348 157.583 231.108C156.743 230.892 155.879 230.556 154.991 230.1L154.847 226.14H156.827L157.511 229.272C158.351 229.656 159.323 229.848 160.427 229.848C161.795 229.848 162.803 229.596 163.451 229.092C164.123 228.588 164.459 227.928 164.459 227.112C164.459 226.344 164.183 225.732 163.631 225.276C163.079 224.796 162.239 224.364 161.111 223.98L159.455 223.368C158.135 222.888 157.079 222.264 156.287 221.496C155.495 220.728 155.099 219.732 155.099 218.508C155.099 217.62 155.339 216.792 155.819 216.024C156.299 215.256 157.007 214.632 157.943 214.152C158.879 213.672 160.019 213.432 161.363 213.432C162.347 213.432 163.235 213.564 164.027 213.828C164.843 214.068 165.635 214.428 166.403 214.908L166.259 218.58H164.387L163.811 215.7C162.995 215.292 162.167 215.088 161.327 215.088C160.223 215.088 159.383 215.316 158.807 215.772C158.255 216.204 157.979 216.792 157.979 217.536C157.979 218.328 158.219 218.928 158.699 219.336C159.203 219.744 160.067 220.176 161.291 220.632L162.407 221.028C164.207 221.7 165.479 222.468 166.223 223.332C166.991 224.196 167.375 225.192 167.375 226.32C167.375 227.232 167.111 228.084 166.583 228.876C166.055 229.644 165.275 230.268 164.243 230.748C163.211 231.228 161.915 231.468 160.355 231.468ZM187.571 210.768L183.935 221.496H191.171L187.571 210.768ZM176.627 231V229.524L179.651 229.056L187.319 206.736H189.587L197.255 229.2L199.955 229.524V231H190.163V229.524L193.691 229.092L191.711 223.188H183.359L181.343 229.056L184.871 229.524V231H176.627ZM207.248 231.468C205.784 231.468 204.632 230.988 203.792 230.028C202.952 229.044 202.544 227.364 202.568 224.988L202.676 216.024L200.12 215.484V214.188L205.412 213.684L205.772 214.044L205.592 219.084V224.664C205.592 226.224 205.832 227.328 206.312 227.976C206.792 228.6 207.512 228.912 208.472 228.912C210.152 228.912 211.832 228.132 213.512 226.572L213.62 215.988L211.064 215.484V214.188L216.284 213.684L216.644 214.044L216.536 219.084V229.2L218.984 229.704V231L213.98 231.288L213.62 228.084C212.66 229.26 211.628 230.124 210.524 230.676C209.444 231.204 208.352 231.468 207.248 231.468ZM221.144 231V229.704L223.988 229.2C224.012 228.24 224.024 227.28 224.024 226.32C224.048 225.36 224.06 224.4 224.06 223.44V215.808H221.072V214.224L224.132 213.828C224.3 211.908 224.564 210.36 224.924 209.184C225.308 207.984 225.944 206.94 226.832 206.052C227.6 205.284 228.404 204.756 229.244 204.468C230.084 204.18 230.912 204.036 231.728 204.036C232.568 204.036 233.312 204.192 233.96 204.504C234.608 204.792 235.016 205.284 235.184 205.98C235.16 206.436 234.956 206.82 234.572 207.132C234.188 207.444 233.66 207.6 232.988 207.6C232.124 207.6 231.26 207.24 230.396 206.52L229.388 205.728C229.292 205.8 229.196 205.872 229.1 205.944C229.028 206.016 228.956 206.088 228.884 206.16C228.26 206.784 227.78 207.732 227.444 209.004C227.132 210.252 227 211.884 227.048 213.9H232.016V215.808H227.12V223.44C227.12 224.4 227.12 225.36 227.12 226.32C227.144 227.256 227.168 228.204 227.192 229.164L230.432 229.704V231H221.144ZM239.414 231.468C238.406 231.468 237.482 231.348 236.642 231.108C235.802 230.892 234.938 230.556 234.05 230.1L233.906 226.14H235.886L236.57 229.272C237.41 229.656 238.382 229.848 239.486 229.848C240.854 229.848 241.862 229.596 242.51 229.092C243.182 228.588 243.518 227.928 243.518 227.112C243.518 226.344 243.242 225.732 242.69 225.276C242.138 224.796 241.298 224.364 240.17 223.98L238.514 223.368C237.194 222.888 236.138 222.264 235.346 221.496C234.554 220.728 234.158 219.732 234.158 218.508C234.158 217.62 234.398 216.792 234.878 216.024C235.358 215.256 236.066 214.632 237.002 214.152C237.938 213.672 239.078 213.432 240.422 213.432C241.406 213.432 242.294 213.564 243.086 213.828C243.902 214.068 244.694 214.428 245.462 214.908L245.318 218.58H243.446L242.87 215.7C242.054 215.292 241.226 215.088 240.386 215.088C239.282 215.088 238.442 215.316 237.866 215.772C237.314 216.204 237.038 216.792 237.038 217.536C237.038 218.328 237.278 218.928 237.758 219.336C238.262 219.744 239.126 220.176 240.35 220.632L241.466 221.028C243.266 221.7 244.538 222.468 245.282 223.332C246.05 224.196 246.434 225.192 246.434 226.32C246.434 227.232 246.17 228.084 245.642 228.876C245.114 229.644 244.334 230.268 243.302 230.748C242.27 231.228 240.974 231.468 239.414 231.468ZM262.44 231.36C261.576 231.36 260.856 231.108 260.28 230.604C259.704 230.1 259.344 229.428 259.2 228.588C258.216 229.548 257.352 230.268 256.608 230.748C255.864 231.228 254.964 231.468 253.908 231.468C252.588 231.468 251.448 231.096 250.488 230.352C249.552 229.584 249.084 228.456 249.084 226.968C249.084 226.272 249.24 225.624 249.552 225.024C249.888 224.424 250.488 223.836 251.352 223.26C252.216 222.684 253.452 222.108 255.06 221.532C255.612 221.34 256.248 221.136 256.968 220.92C257.688 220.704 258.408 220.512 259.128 220.344V219.444C259.128 217.692 258.864 216.528 258.336 215.952C257.808 215.376 256.944 215.088 255.744 215.088C255.48 215.088 255.18 215.1 254.844 215.124C254.532 215.148 254.184 215.208 253.8 215.304L253.116 217.644C252.78 218.796 252.156 219.372 251.244 219.372C250.236 219.372 249.672 218.88 249.552 217.896C249.888 216.528 250.68 215.448 251.928 214.656C253.2 213.84 254.748 213.432 256.572 213.432C258.468 213.432 259.872 213.912 260.784 214.872C261.696 215.808 262.152 217.416 262.152 219.696V227.364C262.152 228.132 262.272 228.684 262.512 229.02C262.752 229.332 263.064 229.488 263.448 229.488C263.76 229.488 264.024 229.416 264.24 229.272C264.456 229.128 264.66 228.936 264.852 228.696L265.572 229.488C265.14 230.184 264.66 230.676 264.132 230.964C263.628 231.228 263.064 231.36 262.44 231.36ZM252.288 226.428C252.288 227.388 252.564 228.072 253.116 228.48C253.668 228.888 254.352 229.092 255.168 229.092C255.528 229.092 255.864 229.044 256.176 228.948C256.512 228.852 256.908 228.672 257.364 228.408C257.82 228.12 258.408 227.712 259.128 227.184V221.676C258.504 221.844 257.892 222.036 257.292 222.252C256.692 222.444 256.2 222.612 255.816 222.756C254.784 223.164 254.016 223.584 253.512 224.016C253.008 224.448 252.672 224.868 252.504 225.276C252.36 225.684 252.288 226.068 252.288 226.428ZM273.448 231.468C271.984 231.468 270.832 230.988 269.992 230.028C269.152 229.044 268.744 227.364 268.768 224.988L268.876 216.024L266.32 215.484V214.188L271.612 213.684L271.972 214.044L271.792 219.084V224.664C271.792 226.224 272.032 227.328 272.512 227.976C272.992 228.6 273.712 228.912 274.672 228.912C276.352 228.912 278.032 228.132 279.712 226.572L279.82 215.988L277.264 215.484V214.188L282.484 213.684L282.844 214.044L282.736 219.084V229.2L285.184 229.704V231L280.18 231.288L279.82 228.084C278.86 229.26 277.828 230.124 276.724 230.676C275.644 231.204 274.552 231.468 273.448 231.468ZM294.264 223.8C295.416 223.8 296.316 223.368 296.964 222.504C297.612 221.64 297.936 220.548 297.936 219.228C297.936 217.956 297.624 216.924 297 216.132C296.4 215.316 295.536 214.908 294.408 214.908C293.28 214.908 292.392 215.328 291.744 216.168C291.096 216.984 290.772 218.052 290.772 219.372C290.772 220.692 291.072 221.76 291.672 222.576C292.296 223.392 293.16 223.8 294.264 223.8ZM294.336 225.24C293.4 225.24 292.512 225.108 291.672 224.844C291.072 225.612 290.772 226.38 290.772 227.148C290.772 227.628 290.904 228.012 291.168 228.3C291.456 228.588 292.02 228.732 292.86 228.732H297.576C299.568 228.732 301.032 229.14 301.968 229.956C302.904 230.772 303.372 231.912 303.372 233.376C303.372 234.408 303.036 235.404 302.364 236.364C301.716 237.324 300.732 238.104 299.412 238.704C298.092 239.304 296.448 239.604 294.48 239.604C291.864 239.604 289.968 239.196 288.792 238.38C287.616 237.564 287.028 236.52 287.028 235.248C287.028 234.48 287.28 233.76 287.784 233.088C288.312 232.44 289.236 231.792 290.556 231.144C288.972 230.712 288.18 229.8 288.18 228.408C288.18 227.832 288.36 227.232 288.72 226.608C289.104 225.984 289.74 225.252 290.628 224.412C289.764 223.932 289.08 223.272 288.576 222.432C288.096 221.592 287.856 220.56 287.856 219.336C287.856 217.44 288.468 215.988 289.692 214.98C290.94 213.948 292.5 213.432 294.372 213.432C296.268 213.432 297.792 213.9 298.944 214.836L303.012 213.432L303.552 213.792V216.06H300.024C300.576 216.948 300.852 218.04 300.852 219.336C300.852 221.232 300.228 222.696 298.98 223.728C297.756 224.736 296.208 225.24 294.336 225.24ZM289.98 234.672C289.98 235.848 290.4 236.688 291.24 237.192C292.08 237.696 293.208 237.948 294.624 237.948C296.592 237.948 298.092 237.588 299.124 236.868C300.156 236.172 300.672 235.32 300.672 234.312C300.672 233.52 300.396 232.848 299.844 232.296C299.292 231.768 298.368 231.504 297.072 231.504H292.86C292.62 231.504 292.368 231.492 292.104 231.468C291.864 231.468 291.624 231.456 291.384 231.432C290.88 231.96 290.52 232.476 290.304 232.98C290.088 233.508 289.98 234.072 289.98 234.672ZM324.737 215.304V213.9H331.325V215.304L329.381 215.772L324.125 231.216H322.793L318.113 218.436L313.361 231.216H312.029L306.233 215.664L304.181 215.304V213.9H312.389V215.304L309.581 215.736L313.289 226.788L317.321 215.736L314.657 215.304V213.9H322.613V215.304L319.949 215.772L324.053 226.752L327.401 215.808L324.737 215.304ZM339.341 231.468C337.877 231.468 336.725 230.988 335.885 230.028C335.045 229.044 334.637 227.364 334.661 224.988L334.769 216.024L332.213 215.484V214.188L337.505 213.684L337.865 214.044L337.685 219.084V224.664C337.685 226.224 337.925 227.328 338.405 227.976C338.885 228.6 339.605 228.912 340.565 228.912C342.245 228.912 343.925 228.132 345.605 226.572L345.713 215.988L343.157 215.484V214.188L348.377 213.684L348.737 214.044L348.629 219.084V229.2L351.077 229.704V231L346.073 231.288L345.713 228.084C344.753 229.26 343.721 230.124 342.617 230.676C341.537 231.204 340.445 231.468 339.341 231.468ZM353.381 231V229.704L356.045 229.2C356.069 228.288 356.081 227.304 356.081 226.248C356.105 225.192 356.117 224.256 356.117 223.44V221.712C356.117 220.728 356.105 219.912 356.081 219.264C356.081 218.616 356.057 217.932 356.009 217.212L353.165 216.888V215.628L358.205 213.432L358.745 213.792L359.033 216.672C359.921 215.712 360.941 214.932 362.093 214.332C363.245 213.732 364.373 213.432 365.477 213.432C367.037 213.432 368.189 213.96 368.933 215.016C369.701 216.048 370.085 217.74 370.085 220.092V223.44C370.085 224.256 370.085 225.192 370.085 226.248C370.109 227.304 370.133 228.288 370.157 229.2L372.677 229.704V231H364.325V229.704L366.989 229.2C367.013 228.312 367.025 227.34 367.025 226.284C367.049 225.204 367.061 224.256 367.061 223.44V220.38C367.061 218.724 366.821 217.584 366.341 216.96C365.885 216.336 365.129 216.024 364.073 216.024C363.257 216.024 362.465 216.192 361.697 216.528C360.929 216.864 360.089 217.416 359.177 218.184V223.44C359.177 224.232 359.177 225.168 359.177 226.248C359.201 227.304 359.225 228.288 359.249 229.2L361.733 229.704V231H353.381ZM378.273 222.54C378.273 224.892 378.741 226.632 379.677 227.76C380.637 228.864 381.837 229.416 383.277 229.416C384.069 229.416 384.765 229.26 385.365 228.948C385.989 228.612 386.637 228.072 387.309 227.328V217.356C386.493 216.636 385.761 216.144 385.113 215.88C384.465 215.616 383.841 215.484 383.241 215.484C382.353 215.484 381.525 215.736 380.757 216.24C380.013 216.72 379.413 217.488 378.957 218.544C378.501 219.576 378.273 220.908 378.273 222.54ZM387.669 231.36L387.417 228.876C386.793 229.692 386.073 230.328 385.257 230.784C384.465 231.24 383.505 231.468 382.377 231.468C380.913 231.468 379.629 231.096 378.525 230.352C377.421 229.608 376.557 228.576 375.933 227.256C375.333 225.912 375.033 224.364 375.033 222.612C375.033 220.764 375.369 219.156 376.041 217.788C376.713 216.42 377.625 215.352 378.777 214.584C379.929 213.816 381.237 213.432 382.701 213.432C383.541 213.432 384.345 213.6 385.113 213.936C385.905 214.272 386.673 214.884 387.417 215.772V207.636L384.357 207.276V206.016L389.973 204.396L390.477 204.684L390.333 209.796V229.272L393.249 229.704V231L387.669 231.36ZM403.163 215.088C402.491 215.088 401.807 215.28 401.111 215.664C400.439 216.048 399.851 216.66 399.347 217.5C398.867 218.34 398.555 219.456 398.411 220.848H404.963C405.827 220.848 406.391 220.668 406.655 220.308C406.943 219.948 407.087 219.504 407.087 218.976C407.087 218.28 406.907 217.644 406.547 217.068C406.211 216.468 405.743 215.988 405.143 215.628C404.567 215.268 403.907 215.088 403.163 215.088ZM403.127 231.468C400.703 231.468 398.759 230.688 397.295 229.128C395.831 227.544 395.099 225.372 395.099 222.612C395.099 220.764 395.471 219.156 396.215 217.788C396.983 216.42 397.991 215.352 399.239 214.584C400.511 213.816 401.891 213.432 403.379 213.432C404.627 213.432 405.755 213.708 406.763 214.26C407.771 214.812 408.575 215.604 409.175 216.636C409.775 217.644 410.075 218.88 410.075 220.344C410.075 220.752 410.051 221.136 410.003 221.496C409.955 221.832 409.895 222.12 409.823 222.36H398.339C398.387 224.568 398.939 226.248 399.995 227.4C401.051 228.552 402.443 229.128 404.171 229.128C405.323 229.128 406.283 228.9 407.051 228.444C407.819 227.964 408.527 227.352 409.175 226.608L410.039 227.292C409.367 228.564 408.455 229.584 407.303 230.352C406.151 231.096 404.759 231.468 403.127 231.468ZM412.982 231V229.704L415.574 229.236C415.598 228.324 415.61 227.34 415.61 226.284C415.634 225.204 415.646 224.256 415.646 223.44V221.712C415.646 220.728 415.634 219.912 415.61 219.264C415.61 218.616 415.586 217.932 415.538 217.212L412.694 216.888V215.628L417.734 213.432L418.274 213.792L418.67 218.04C419.27 216.6 420.038 215.472 420.974 214.656C421.934 213.84 422.894 213.432 423.854 213.432C424.406 213.432 424.922 213.552 425.402 213.792C425.882 214.032 426.23 214.356 426.446 214.764C426.446 216.516 425.738 217.392 424.322 217.392C423.914 217.392 423.53 217.32 423.17 217.176C422.81 217.008 422.462 216.78 422.126 216.492L421.694 216.096C420.974 216.624 420.374 217.272 419.894 218.04C419.414 218.808 419.018 219.708 418.706 220.74V223.44C418.706 224.232 418.706 225.156 418.706 226.212C418.73 227.268 418.754 228.252 418.778 229.164L421.73 229.704V231H412.982Z" fill="black"/>
<defs>
<clipPath id="clip0_9_32">
<rect width="89" height="267" fill="white"/>
</clipPath>
</defs>
</svg>
