<?xml version="1.0" encoding="UTF-8"?>
<svg xmlns="http://www.w3.org/2000/svg" xmlns:xlink="http://www.w3.org/1999/xlink" version="1.1" viewBox="0 0 2270.1 1536">
  <!-- Generator: Adobe Illustrator 30.0.0, SVG Export Plug-In . SVG Version: 2.1.1 Build 123)  -->
  <defs>
    <style>
      .st0 {
        fill: none;
        stroke-dasharray: 12;
        stroke-width: 4px;
      }

      .st0, .st1 {
        stroke: #1c1b1b;
        stroke-miterlimit: 10;
      }

      .st2 {
        fill: #edead7;
      }

      .st1 {
        fill: #7fb1d6;
        stroke-width: 7px;
      }

      .st3 {
        display: none;
      }
    </style>
  </defs>
  <g id="Ebene_1" class="st3">
    <g id="Vy5WzC">
      <image id="Vy5WzC1" data-name="Vy5WzC" width="2752" height="1536" xlink:href="bankquischer-tz-1.png"/>
    </g>
  </g>
  <g id="Ebene_2">
    <rect class="st2" width="2270.1" height="1536"/>
    <g>
      <rect class="st1" x="794.7" y="76.4" width="276.8" height="198.4"/>
      <rect class="st1" x="794.7" y="1280" width="276.8" height="198.4"/>
      <rect class="st1" x="112.8" y="678.2" width="276.8" height="198.4" transform="translate(-526.3 1028.6) rotate(-90)"/>
      <line class="st0" x1="350.4" y1="671.8" x2="151.9" y2="671.8"/>
      <line class="st0" x1="350.4" y1="887.8" x2="151.9" y2="887.8"/>
      <line class="st0" x1="1041.1" y1="274.9" x2="1041.1" y2="76.4"/>
      <line class="st0" x1="825.1" y1="274.9" x2="825.1" y2="76.4"/>
      <line class="st0" x1="1041.1" y1="1478.4" x2="1041.1" y2="1280"/>
      <line class="st0" x1="825.1" y1="1478.4" x2="825.1" y2="1280"/>
      <path class="st1" d="M1769.3,274.9H350.4v1005.1h1418.9s307.3-269.3,307.3-269.3v-468.5s-307.3-267.3-307.3-267.3ZM1940.9,834.7c-37.8,0-68.5-30.7-68.5-68.5s30.7-68.5,68.5-68.5,68.5,30.7,68.5,68.5-30.7,68.5-68.5,68.5Z"/>
    </g>
  </g>
</svg>